<?xml version="1.0" encoding="UTF-8" standalone="no"?>
<!-- Created with Inkscape (http://www.inkscape.org/) -->

<svg
   xmlns:dc="http://purl.org/dc/elements/1.1/"
   xmlns:cc="http://creativecommons.org/ns#"
   xmlns:rdf="http://www.w3.org/1999/02/22-rdf-syntax-ns#"
   xmlns:svg="http://www.w3.org/2000/svg"
   xmlns="http://www.w3.org/2000/svg"
   xmlns:sodipodi="http://sodipodi.sourceforge.net/DTD/sodipodi-0.dtd"
   xmlns:inkscape="http://www.inkscape.org/namespaces/inkscape"
   width="992"
   height="700"
   viewBox="0 0 262.46666 185.20833"
   version="1.1"
   id="svg1117"
   inkscape:version="0.92.4 (5da689c313, 2019-01-14)"
   sodipodi:docname="cover_992.svg">
  <defs
     id="defs1111">
    <filter
       inkscape:collect="always"
       style="color-interpolation-filters:sRGB"
       id="filter1959"
       x="-0.020467741"
       width="1.0409355"
       y="-0.029005714"
       height="1.0580114">
      <feGaussianBlur
         inkscape:collect="always"
         stdDeviation="8.46"
         id="feGaussianBlur1961" />
    </filter>
  </defs>
  <sodipodi:namedview
     id="base"
     pagecolor="#ffffff"
     bordercolor="#666666"
     borderopacity="1.0"
     inkscape:pageopacity="0.0"
     inkscape:pageshadow="2"
     inkscape:zoom="1.1714286"
     inkscape:cx="496"
     inkscape:cy="350"
     inkscape:document-units="px"
     inkscape:current-layer="layer1"
     showgrid="false"
     inkscape:window-width="1920"
     inkscape:window-height="1017"
     inkscape:window-x="-8"
     inkscape:window-y="-8"
     inkscape:window-maximized="1"
     units="px"
     inkscape:snap-bbox="true"
     inkscape:bbox-nodes="true">
    <inkscape:grid
       type="xygrid"
       id="grid840" />
  </sodipodi:namedview>
  <metadata
     id="metadata1114">
    <rdf:RDF>
      <cc:Work
         rdf:about="">
        <dc:format>image/svg+xml</dc:format>
        <dc:type
           rdf:resource="http://purl.org/dc/dcmitype/StillImage" />
        <dc:title></dc:title>
      </cc:Work>
    </rdf:RDF>
  </metadata>
  <g
     inkscape:label="Layer 1"
     inkscape:groupmode="layer"
     id="layer1"
     transform="translate(0,-111.79165)">
    <g
       transform="translate(-810.10715,639.71131)"
       id="g1968">
      <rect
         style="opacity:1;fill:#32329c;fill-opacity:1;fill-rule:nonzero;stroke:none;stroke-width:0.26458332;stroke-linecap:round;stroke-linejoin:round;stroke-miterlimit:4;stroke-dasharray:none;stroke-dashoffset:0;stroke-opacity:0"
         id="rect1821"
         width="262.46667"
         height="185.20833"
         x="810.10699"
         y="-527.91949" />
      <path
         inkscape:connector-curvature="0"
         id="path1925"
         transform="matrix(0.26458333,0,0,0.26458333,0,111.79166)"
         d="m 3221.5391,-2417.8066 a 289.65194,289.65194 0 0 0 -7.7461,65.2714 289.65194,289.65194 0 0 0 289.6523,289.6524 289.65194,289.65194 0 0 0 289.6524,-289.6524 289.65194,289.65194 0 0 0 -7.8145,-65.2714 z m 832.2832,289.4668 a 489.99998,489.99998 0 0 0 -469.7696,410.5332 h 469.7696 z m -974.1641,13.3867 a 345.34433,345.34433 0 0 0 -17.8359,0.9551 v 396.1914 h 358.8359 a 345.34433,345.34433 0 0 0 4.3438,-51.8028 345.34433,345.34433 0 0 0 -345.3438,-345.3437 z"
         style="opacity:1;fill:#433185;fill-opacity:1;fill-rule:nonzero;stroke:none;stroke-width:0.99999994;stroke-linecap:round;stroke-linejoin:round;stroke-miterlimit:4;stroke-dasharray:1.99999997, 3.99999964;stroke-dashoffset:5.69999981;stroke-opacity:1;filter:url(#filter1959)" />
      <path
         inkscape:connector-curvature="0"
         id="path1882"
         transform="matrix(0.26458333,0,0,0.26458333,0,111.79166)"
         d="m 3079.6582,-2114.9531 a 345.34434,345.34434 0 0 0 -17.8359,0.9551 v 396.1914 h 358.8359 a 345.34434,345.34434 0 0 0 4.3438,-51.8028 345.34434,345.34434 0 0 0 -345.3438,-345.3437 z"
         style="opacity:1;fill:#ffc05c;fill-opacity:1;fill-rule:nonzero;stroke:none;stroke-width:0.99999994;stroke-linecap:round;stroke-linejoin:round;stroke-miterlimit:4;stroke-dasharray:1.99999997, 3.99999964;stroke-dashoffset:5.69999981;stroke-opacity:1" />
      <path
         id="path1884"
         d="m 852.36547,-527.91959 a 76.637077,76.637077 0 0 0 -2.0494,17.26972 76.637077,76.637077 0 0 0 76.6372,76.6372 76.637077,76.637077 0 0 0 76.63713,-76.6372 76.637077,76.637077 0 0 0 -2.0675,-17.26972 z"
         style="opacity:1;fill:#1eca91;fill-opacity:1;fill-rule:nonzero;stroke:none;stroke-width:0.26458335;stroke-linecap:round;stroke-linejoin:round;stroke-miterlimit:4;stroke-dasharray:0.52916668, 1.05833334;stroke-dashoffset:5.69999981;stroke-opacity:1"
         inkscape:connector-curvature="0" />
      <path
         inkscape:connector-curvature="0"
         id="path1886"
         transform="matrix(0.26458333,0,0,0.26458333,0,111.79166)"
         d="m 4053.8223,-2128.3398 a 489.99999,489.99999 0 0 0 -469.7696,410.5332 h 469.7696 z"
         style="opacity:1;fill:#00daff;fill-opacity:1;fill-rule:nonzero;stroke:none;stroke-width:0.99999994;stroke-linecap:round;stroke-linejoin:round;stroke-miterlimit:4;stroke-dasharray:1.99999978, 3.99999968;stroke-dashoffset:5.69999981;stroke-opacity:1" />
    </g>
  </g>
</svg>
