<?xml version="1.0" encoding="UTF-8" standalone="no"?>
<!-- Created with Inkscape (http://www.inkscape.org/) -->

<svg
   xmlns:dc="http://purl.org/dc/elements/1.1/"
   xmlns:cc="http://creativecommons.org/ns#"
   xmlns:rdf="http://www.w3.org/1999/02/22-rdf-syntax-ns#"
   xmlns:svg="http://www.w3.org/2000/svg"
   xmlns="http://www.w3.org/2000/svg"
   xmlns:sodipodi="http://sodipodi.sourceforge.net/DTD/sodipodi-0.dtd"
   xmlns:inkscape="http://www.inkscape.org/namespaces/inkscape"
   width="1200"
   height="700"
   viewBox="0 0 317.49999 185.20833"
   version="1.1"
   id="svg1117"
   inkscape:version="0.92.4 (5da689c313, 2019-01-14)"
   sodipodi:docname="game_cover_1.svg">
  <defs
     id="defs1111" />
  <sodipodi:namedview
     id="base"
     pagecolor="#ffffff"
     bordercolor="#666666"
     borderopacity="1.0"
     inkscape:pageopacity="0.0"
     inkscape:pageshadow="2"
     inkscape:zoom="0.24023437"
     inkscape:cx="1968.1666"
     inkscape:cy="-236.10894"
     inkscape:document-units="px"
     inkscape:current-layer="layer1"
     showgrid="false"
     inkscape:window-width="1920"
     inkscape:window-height="1017"
     inkscape:window-x="-8"
     inkscape:window-y="-8"
     inkscape:window-maximized="1"
     units="px"
     inkscape:snap-bbox="true"
     inkscape:bbox-nodes="true"
     inkscape:snap-global="false">
    <inkscape:grid
       type="xygrid"
       id="grid840" />
  </sodipodi:namedview>
  <metadata
     id="metadata1114">
    <rdf:RDF>
      <cc:Work
         rdf:about="">
        <dc:format>image/svg+xml</dc:format>
        <dc:type
           rdf:resource="http://purl.org/dc/dcmitype/StillImage" />
        <dc:title />
      </cc:Work>
    </rdf:RDF>
  </metadata>
  <g
     inkscape:label="Layer 1"
     inkscape:groupmode="layer"
     id="layer1"
     transform="translate(0,-111.79165)">
    <g
       id="g1159"
       transform="translate(-1020.5735,-238.28709)">
      <rect
         style="opacity:1;fill:#fc544b;fill-opacity:1;fill-rule:nonzero;stroke:none;stroke-width:0.26458332;stroke-linecap:round;stroke-linejoin:round;stroke-miterlimit:4;stroke-dasharray:none;stroke-dashoffset:0;stroke-opacity:0"
         id="rect1053"
         width="317.5"
         height="185.20833"
         x="1020.5735"
         y="350.07874" />
      <path
         inkscape:connector-curvature="0"
         style="opacity:1;fill:#f24840;fill-opacity:1;fill-rule:nonzero;stroke:none;stroke-width:0.26458332;stroke-linecap:round;stroke-linejoin:round;stroke-miterlimit:4;stroke-dasharray:none;stroke-dashoffset:10;stroke-opacity:1"
         d="m 1071.2443,374.03197 a 13.708362,12.846879 0 0 0 -13.7087,12.84676 13.708362,12.846879 0 0 0 13.7087,12.84676 13.708362,12.846879 0 0 0 13.7082,-12.84676 13.708362,12.846879 0 0 0 -13.7082,-12.84676 z m 183.7666,1.39165 c -1.6065,-0.0376 -3.1564,0.7442 -4.0391,2.23295 l -8.4149,14.19344 c -1.2839,2.16545 -0.5517,5.01129 1.6634,6.20736 l 14.025,7.5737 c 2.2151,1.19613 4.7915,0.41807 6.2074,-1.66346 l 9.4247,-13.85702 c 1.4158,-2.08159 0.5644,-5.03529 -1.6634,-6.20739 l -15.0348,-7.91011 c -0.6962,-0.36629 -1.4381,-0.55239 -2.1683,-0.56947 z m -122.5786,8.86354 c -1.8803,0.0901 -3.4898,1.45595 -4.2276,3.36362 l -5.9578,15.4037 c -0.6516,2.43165 0.8758,4.63074 3.2132,5.56556 l 16.5814,6.63059 c 2.3375,0.93472 4.7103,-0.84555 5.5656,-3.21323 l 6.2942,-17.42271 c 0.8553,-2.36767 -0.7848,-4.90233 -3.2133,-5.56556 l -16.9178,-4.61108 c -0.4554,-0.12411 -0.904,-0.17169 -1.3379,-0.15089 z m 69.2707,3.01686 c -0.2562,-0.0132 -0.5159,0.0166 -0.7679,0.091 -0.2618,0.0773 -0.5078,0.19995 -0.7266,0.36327 l -12.0023,12.43129 c -0.7958,0.59598 -1.1172,1.63661 -0.7964,2.57763 l 6.6818,13.89837 c 0.3204,0.94176 1.2109,1.56972 2.2055,1.55546 l 13.1398,0.37103 c 0.9938,-0.0146 1.8654,-0.66741 2.1591,-1.61695 l 8.0718,-15.50035 c 0.293,-0.94922 -0.058,-1.97951 -0.8697,-2.55228 l -15.8921,-11.20293 c -0.358,-0.25202 -0.776,-0.39346 -1.203,-0.4155 z m 97.1491,32.97732 a 15.478365,14.505649 0 0 0 -15.4786,14.50557 15.478365,14.505649 0 0 0 15.4786,14.5056 15.478365,14.505649 0 0 0 15.4781,-14.5056 15.478365,14.505649 0 0 0 -15.4781,-14.50557 z m -243.5799,14.93501 c -2.8944,-0.0125 -4.9147,2.34723 -5.2245,5.225 l -2.033,18.87947 c 0,2.89441 2.351,4.88186 5.225,5.22449 l 20.3884,2.42983 c 2.8741,0.34248 4.9792,-2.34045 5.2245,-5.22449 l 1.8056,-21.223 c 0.2454,-2.88403 -2.3301,-5.21059 -5.2245,-5.22449 z m 172.0551,11.58172 c -1.8804,0.0901 -3.4898,1.45595 -4.2277,3.36362 l -5.9577,15.40319 c -0.6516,2.43163 0.8758,4.63074 3.2132,5.56557 l 16.5814,6.63059 c 2.3375,0.93469 4.7102,-0.84559 5.5656,-3.21324 l 6.2942,-17.4227 c 0.8553,-2.36768 -0.7848,-4.90233 -3.2133,-5.56557 l -16.9178,-4.61107 c -0.4554,-0.12415 -0.904,-0.17116 -1.3379,-0.15039 z m -82.3113,1.32913 a 12.46853,11.684961 15 0 0 -11.7357,8.51162 12.46853,11.684961 15 0 0 9.0191,14.51382 12.46853,11.684961 15 0 0 15.0683,-8.05944 12.46853,11.684961 15 0 0 -9.0196,-14.51385 12.46853,11.684961 15 0 0 -3.3321,-0.45215 z m -50.1876,36.5497 c -0.2193,-0.0113 -0.4416,0.0144 -0.6573,0.078 -0.2242,0.0662 -0.4349,0.17126 -0.6222,0.31109 l -10.2759,10.64276 c -0.6813,0.51022 -0.9567,1.40145 -0.6821,2.2071 l 5.7211,11.899 c 0.2743,0.80629 1.0367,1.34393 1.8883,1.3317 l 11.2494,0.31782 c 0.8508,-0.0125 1.5971,-0.57145 1.8485,-1.3844 l 6.9107,-13.27103 c 0.2508,-0.81269 -0.05,-1.69447 -0.7447,-2.18487 l -13.6059,-9.59168 c -0.3065,-0.21574 -0.6643,-0.33668 -1.0299,-0.35552 z m 88.8401,3.36362 c -1.0308,-0.006 -2.0563,0.37717 -2.8629,1.16531 l -10.5735,10.33216 c -1.6133,1.57634 -1.6396,4.20854 0,5.75728 l 10.3812,9.80665 c 1.6396,1.54879 4.0498,1.47304 5.7578,0 l 11.3694,-9.80665 c 1.7079,-1.47312 1.6562,-4.22629 0,-5.75728 l -11.1771,-10.33216 c -0.8281,-0.7655 -1.8642,-1.15965 -2.8949,-1.16531 z m 109.8072,1.13377 c -1.6064,-0.0376 -3.1564,0.74419 -4.039,2.23295 l -8.415,14.19344 c -1.2839,2.16548 -0.5516,5.01131 1.6635,6.20736 l 14.0249,7.5737 c 2.2151,1.19616 4.7915,0.41807 6.2074,-1.66346 l 9.4247,-13.85702 c 1.4159,-2.08159 0.565,-5.03529 -1.6629,-6.20737 l -15.0353,-7.91011 c -0.6962,-0.36629 -1.4381,-0.5524 -2.1683,-0.56949 z"
         id="path1055" />
      <path
         inkscape:connector-curvature="0"
         style="color:#000000;font-style:normal;font-variant:normal;font-weight:normal;font-stretch:normal;font-size:medium;line-height:normal;font-family:sans-serif;font-variant-ligatures:normal;font-variant-position:normal;font-variant-caps:normal;font-variant-numeric:normal;font-variant-alternates:normal;font-feature-settings:normal;text-indent:0;text-align:start;text-decoration:none;text-decoration-line:none;text-decoration-style:solid;text-decoration-color:#000000;letter-spacing:normal;word-spacing:normal;text-transform:none;writing-mode:lr-tb;direction:ltr;text-orientation:mixed;dominant-baseline:auto;baseline-shift:baseline;text-anchor:start;white-space:normal;shape-padding:0;clip-rule:nonzero;display:inline;overflow:visible;visibility:visible;opacity:1;isolation:auto;mix-blend-mode:normal;color-interpolation:sRGB;color-interpolation-filters:linearRGB;solid-color:#000000;solid-opacity:1;vector-effect:none;fill:#fc655c;fill-opacity:1;fill-rule:nonzero;stroke:none;stroke-width:1.32291675;stroke-linecap:round;stroke-linejoin:round;stroke-miterlimit:4;stroke-dasharray:none;stroke-dashoffset:0;stroke-opacity:1;color-rendering:auto;image-rendering:auto;shape-rendering:auto;text-rendering:auto;enable-background:accumulate"
         d="m 1071.2226,379.12106 c -0.7284,0 -1.355,0.0836 -1.8795,0.25115 -0.5244,0.16753 -0.969,0.38626 -1.3332,0.65577 -0.3642,0.26953 -0.6594,0.57184 -0.8852,0.90693 -0.2258,0.33507 -0.4002,0.67004 -0.524,1.0051 -0.1239,0.33507 -0.208,0.6522 -0.2517,0.95086 -0.044,0.29864 -0.066,0.54235 -0.066,0.73174 0,0.42976 0.153,0.78306 0.4589,1.05986 0.3059,0.26953 0.7067,0.40463 1.202,0.40463 0.1602,0 0.3351,-0.0296 0.5245,-0.0878 0.1967,-0.0583 0.3751,-0.14901 0.5354,-0.27284 0.1675,-0.12385 0.3062,-0.28445 0.4154,-0.48112 0.1093,-0.20397 0.1639,-0.44765 0.1639,-0.73173 0,-0.17484 0.014,-0.35684 0.043,-0.54623 0.036,-0.19667 0.1093,-0.3751 0.2186,-0.53536 0.1165,-0.16026 0.2842,-0.29181 0.5028,-0.39378 0.2185,-0.10927 0.5101,-0.1638 0.8743,-0.1638 0.1384,0 0.3056,0.0148 0.5023,0.0439 0.204,0.0219 0.3972,0.0871 0.5793,0.19637 0.1894,0.10197 0.3459,0.26257 0.4698,0.48109 0.1311,0.21855 0.1968,0.51679 0.1968,0.89557 0,0.36422 -0.084,0.67061 -0.2516,0.91828 -0.1676,0.24038 -0.3786,0.45858 -0.6336,0.65527 -0.2549,0.19667 -0.5282,0.38632 -0.8196,0.56843 -0.2913,0.18212 -0.5646,0.39675 -0.8195,0.6444 -0.255,0.2404 -0.4661,0.52845 -0.6336,0.86352 -0.1675,0.33506 -0.2512,0.75006 -0.2512,1.24539 0,0.1384 0.021,0.29136 0.065,0.45889 0.051,0.16754 0.1352,0.32406 0.2517,0.46974 0.1238,0.14568 0.2839,0.26959 0.4806,0.37156 0.204,0.0947 0.4624,0.14211 0.7757,0.14211 0.5171,0 0.8959,-0.12745 1.1363,-0.38241 0.2477,-0.25495 0.3716,-0.5792 0.3716,-0.97255 0,-0.15296 0.029,-0.28755 0.087,-0.4041 0.058,-0.12385 0.1092,-0.21511 0.1529,-0.27337 0.102,-0.1384 0.255,-0.28421 0.4589,-0.43719 0.2113,-0.16026 0.4371,-0.33102 0.6775,-0.51314 0.2477,-0.18211 0.499,-0.38248 0.754,-0.601 0.2622,-0.21854 0.4993,-0.45916 0.7105,-0.72141 0.2113,-0.26223 0.382,-0.54975 0.5132,-0.86299 0.1384,-0.31322 0.2077,-0.6594 0.2077,-1.03817 0,-0.66289 -0.1055,-1.26752 -0.3168,-1.81386 -0.2112,-0.55361 -0.5242,-1.02671 -0.9394,-1.42007 -0.4153,-0.40063 -0.9363,-0.71062 -1.5627,-0.92913 -0.6192,-0.22583 -1.3401,-0.33849 -2.1632,-0.33849 z m 187.0382,2.7218 c -0.4355,0 -0.7941,0.0812 -1.0759,0.24339 -0.2732,0.16224 -0.4866,0.3756 -0.6403,0.64029 -0.1537,0.26469 -0.2606,0.56796 -0.3204,0.90951 -0.06,0.34152 -0.089,0.69143 -0.089,1.05005 v 3.12539 l 0.6656,4.14962 c 0,0.27323 0.013,0.5376 0.039,0.79375 0.034,0.25614 0.1022,0.48702 0.2047,0.69194 0.1024,0.1964 0.2478,0.35822 0.4356,0.48627 0.1964,0.11954 0.4569,0.17934 0.7813,0.17934 0.3245,0 0.5806,-0.0598 0.7685,-0.17934 0.1964,-0.12805 0.3455,-0.28987 0.448,-0.48627 0.1025,-0.20492 0.1666,-0.4358 0.1922,-0.69194 0.034,-0.25615 0.051,-0.52052 0.051,-0.79375 l 0.6403,-4.09845 v -3.15071 c 0,-0.35862 -0.03,-0.70906 -0.089,-1.05058 -0.051,-0.34155 -0.1538,-0.64432 -0.3075,-0.90901 -0.1537,-0.27323 -0.367,-0.49096 -0.6402,-0.65317 -0.2733,-0.17079 -0.6276,-0.25633 -1.063,-0.25633 z m -187.0382,9.18808 c -0.5827,0 -1.0309,0.14224 -1.3441,0.42632 -0.3132,0.28408 -0.4697,0.73935 -0.4697,1.36581 0,0.61918 0.1565,1.07802 0.4697,1.37665 0.3132,0.29139 0.7614,0.43667 1.3441,0.43667 0.5682,0 1.0087,-0.14528 1.3219,-0.43667 0.3132,-0.29863 0.4697,-0.75747 0.4697,-1.37665 0,-0.62646 -0.1493,-1.08173 -0.448,-1.36581 -0.2914,-0.28408 -0.739,-0.42632 -1.3436,-0.42632 z m 73.8911,2.09391 a 2.0014459,2.0014459 0 0 0 -1.3767,0.59687 l -8.1845,8.11888 -3.0608,-3.03702 a 2.0014867,2.0014867 0 1 0 -2.8184,2.8422 l 4.4669,4.43799 a 2.0014459,2.0014459 0 0 0 2.819,0 l 9.5963,-9.51984 a 2.0014459,2.0014459 0 0 0 -1.4418,-3.43908 z m 57.7179,1.00719 c -0.4354,0 -0.7941,0.0812 -1.0759,0.24339 -0.2732,0.16224 -0.4866,0.37558 -0.6402,0.64027 -0.1537,0.26468 -0.2607,0.56798 -0.3204,0.9095 -0.06,0.34155 -0.09,0.69146 -0.09,1.05008 v 3.12486 l 0.6661,4.14962 c 0,0.27324 0.013,0.53811 0.039,0.79428 0.034,0.25614 0.1022,0.48649 0.2046,0.69143 0.1025,0.19638 0.2478,0.3587 0.4356,0.48679 0.1964,0.11953 0.4569,0.1793 0.7814,0.1793 0.3244,0 0.5806,-0.0598 0.7684,-0.1793 0.1964,-0.12809 0.3456,-0.29041 0.4481,-0.48679 0.1024,-0.20494 0.1666,-0.43529 0.1922,-0.69143 0.034,-0.25617 0.051,-0.52104 0.051,-0.79428 l 0.6403,-4.09845 v -3.15071 c 0,-0.35862 -0.03,-0.70853 -0.089,-1.05008 -0.051,-0.34152 -0.1538,-0.64481 -0.3075,-0.9095 -0.1537,-0.27321 -0.3671,-0.49044 -0.6403,-0.65268 -0.2732,-0.17076 -0.6275,-0.2563 -1.063,-0.2563 z m 55.4292,1.41489 c -0.6831,0 -1.2085,0.16671 -1.5756,0.49971 -0.3672,0.33301 -0.5504,0.86665 -0.5504,1.60095 0,0.72575 0.1832,1.26378 0.5504,1.61385 0.3671,0.34152 0.8925,0.5121 1.5756,0.5121 0.666,0 1.1826,-0.17058 1.5498,-0.5121 0.3671,-0.35007 0.5503,-0.8881 0.5503,-1.61385 0,-0.7343 -0.1749,-1.26794 -0.525,-1.60095 -0.3415,-0.333 -0.8664,-0.49971 -1.5751,-0.49971 z m -55.4292,12.28918 c -0.683,0 -1.2084,0.16671 -1.5756,0.49972 -0.3671,0.33297 -0.5509,0.86661 -0.5509,1.60094 0,0.72575 0.1838,1.26325 0.5509,1.61332 0.3672,0.34155 0.8926,0.51263 1.5756,0.51263 0.666,0 1.1821,-0.17108 1.5493,-0.51263 0.3671,-0.35007 0.5509,-0.88757 0.5509,-1.61332 0,-0.73433 -0.175,-1.26797 -0.5251,-1.60094 -0.3415,-0.33301 -0.8664,-0.49972 -1.5751,-0.49972 z m 102.7937,19.18591 a 2.0014459,2.0014459 0 0 0 -1.3771,0.59685 l -8.184,8.1194 -3.0613,-3.03752 a 2.0014867,2.0014867 0 1 0 -2.8185,2.84221 l 4.4675,4.43796 a 2.0014459,2.0014459 0 0 0 2.8184,0 l 9.5968,-9.51984 a 2.0014459,2.0014459 0 0 0 -1.4418,-3.43906 z m -240.977,12.60801 c -0.1013,-5e-4 -0.205,0.002 -0.3111,0.009 -0.4243,0.0274 -0.8631,0.10184 -1.3162,0.22323 -1.0672,0.28596 -1.8671,0.66254 -2.4003,1.12914 -0.5359,0.45653 -0.8887,0.99351 -1.0578,1.61075 -0.1719,0.60717 -0.1982,1.29374 -0.079,2.06034 0.119,0.7666 0.2974,1.59292 0.5348,2.47891 l -0.8459,0.22688 c -0.2819,0.0755 -0.5494,0.16319 -0.8031,0.26355 -0.2436,0.0976 -0.4501,0.23397 -0.6191,0.40875 -0.1589,0.17206 -0.2649,0.40013 -0.3183,0.68419 -0.053,0.28408 -0.02,0.64738 0.098,1.09037 0.1106,0.41281 0.2583,0.72404 0.4439,0.9333 0.1829,0.19917 0.3875,0.33842 0.6139,0.41804 0.2337,0.0669 0.4822,0.0866 0.7447,0.0594 0.2698,-0.0399 0.5454,-0.0976 0.8273,-0.17311 l 0.846,-0.22633 2.1445,8.00415 c 0.1187,0.44299 0.2533,0.86511 0.4041,1.26712 0.1482,0.39192 0.3409,0.72908 0.5783,1.01078 0.2346,0.27165 0.5239,0.46366 0.8671,0.57672 0.3533,0.11035 0.7867,0.0967 1.3002,-0.0408 0.5336,-0.14298 0.9308,-0.35192 1.1917,-0.62682 0.2709,-0.27763 0.4449,-0.59405 0.5224,-0.9493 0.085,-0.36804 0.093,-0.75851 0.026,-1.17203 -0.06,-0.42627 -0.15,-0.86132 -0.2687,-1.30431 l -2.1446,-8.00365 0.9064,-0.24289 c 0.2517,-0.0674 0.5044,-0.15131 0.7581,-0.25164 0.251,-0.11044 0.461,-0.25313 0.6299,-0.42789 0.1764,-0.18753 0.2986,-0.41447 0.3675,-0.68111 0.066,-0.2767 0.044,-0.62177 -0.067,-1.03455 -0.1187,-0.44299 -0.2771,-0.77245 -0.4754,-0.98909 -0.1984,-0.21664 -0.4193,-0.357 -0.6631,-0.42117 -0.2337,-0.0669 -0.4856,-0.0807 -0.7555,-0.0408 -0.2698,0.04 -0.5306,0.0938 -0.7823,0.16124 l -0.9059,0.24288 -0.17,-0.63407 c -0.049,-0.18124 -0.092,-0.36386 -0.1308,-0.54777 -0.038,-0.18394 -0.058,-0.35703 -0.058,-0.51885 0.01,-0.16449 0.037,-0.30133 0.084,-0.41081 0.056,-0.11221 0.1552,-0.18754 0.2961,-0.22532 0.1712,-0.0459 0.3314,-0.0509 0.4811,-0.0155 0.1498,0.0354 0.3007,0.0327 0.4517,-0.008 0.1812,-0.0485 0.369,-0.13097 0.5643,-0.24805 0.2053,-0.11975 0.3786,-0.27945 0.5193,-0.47903 0.1408,-0.19957 0.239,-0.43656 0.2951,-0.71056 0.066,-0.2767 0.051,-0.59613 -0.047,-0.95859 -0.1052,-0.39264 -0.2849,-0.70069 -0.539,-0.92397 -0.2467,-0.23604 -0.5435,-0.39915 -0.8914,-0.48938 -0.2609,-0.0677 -0.5436,-0.10234 -0.8475,-0.10387 z m 79.4846,13.98209 c -0.4177,0.008 -0.7999,0.0723 -1.1462,0.19121 -0.4595,0.15063 -0.8496,0.40979 -1.1705,0.77722 -0.3107,0.36158 -0.5494,0.85381 -0.7162,1.4764 -0.1134,0.42304 -0.1232,0.82635 -0.029,1.21076 0.096,0.37645 0.2563,0.73596 0.4811,1.07849 0.2248,0.34253 0.4877,0.67009 0.7891,0.98185 0.3094,0.3139 0.6182,0.61446 0.926,0.90228 0.2446,0.23664 0.4809,0.47096 0.7096,0.70331 0.2387,0.22651 0.4433,0.45263 0.6139,0.678 0.1706,0.22537 0.2932,0.45508 0.3674,0.68884 0.084,0.22794 0.097,0.45347 0.037,0.67696 -0.071,0.2634 -0.2279,0.45223 -0.4723,0.56637 -0.2344,0.10832 -0.5073,0.12062 -0.8186,0.0372 -0.1516,-0.0406 -0.3051,-0.0901 -0.4604,-0.14883 -0.1532,-0.0667 -0.2906,-0.146 -0.4114,-0.23823 -0.1106,-0.0981 -0.1967,-0.20677 -0.2589,-0.3261 -0.054,-0.11716 -0.064,-0.25678 -0.029,-0.41857 0.1124,-0.48318 0.07,-0.86688 -0.1281,-1.15083 -0.1977,-0.28395 -0.496,-0.47959 -0.8951,-0.58653 -0.5507,-0.14759 -0.9916,-0.1456 -1.3229,0.005 -0.3233,0.15293 -0.5491,0.46884 -0.6774,0.94776 -0.054,0.19955 -0.089,0.42519 -0.105,0.67747 -0.014,0.24431 0.01,0.50257 0.062,0.77412 0.056,0.27154 0.1573,0.54668 0.3049,0.82579 0.1578,0.27326 0.3766,0.54131 0.6568,0.80459 0.2824,0.25533 0.6369,0.49573 1.0641,0.72142 0.4271,0.22566 0.948,0.42132 1.5627,0.586 0.3113,0.0834 0.6493,0.14808 1.0133,0.19431 0.3619,0.0542 0.7243,0.0744 1.0873,0.0605 0.371,-0.0118 0.7317,-0.0648 1.0821,-0.15917 0.3584,-0.0922 0.6886,-0.23942 0.9906,-0.4408 0.3042,-0.20936 0.5732,-0.47894 0.8072,-0.80975 0.2421,-0.32867 0.4272,-0.7329 0.5556,-1.21182 0.1411,-0.52681 0.1552,-1.01021 0.042,-1.45108 -0.1028,-0.44672 -0.2819,-0.86283 -0.538,-1.24799 -0.2561,-0.38515 -0.5591,-0.73993 -0.9085,-1.06452 -0.3472,-0.33258 -0.6906,-0.64725 -1.0304,-0.94361 -0.2233,-0.18817 -0.4386,-0.37423 -0.646,-0.55812 -0.1993,-0.18174 -0.3745,-0.35713 -0.526,-0.52607 -0.1414,-0.17475 -0.2458,-0.34395 -0.3132,-0.50744 -0.067,-0.16351 -0.08,-0.32509 -0.037,-0.48474 0.047,-0.17561 0.1137,-0.31147 0.1995,-0.40823 0.094,-0.0946 0.1972,-0.16129 0.3101,-0.19947 0.123,-0.044 0.2474,-0.0619 0.3736,-0.0538 0.1362,0.002 0.272,0.0215 0.4077,0.0579 0.3273,0.0877 0.5815,0.24143 0.7622,0.46096 0.1887,0.22164 0.2503,0.48614 0.185,0.79375 -0.03,0.11173 -0.033,0.23529 -0.01,0.36999 0.032,0.13684 0.091,0.26805 0.1768,0.39378 0.086,0.12573 0.1967,0.24069 0.3312,0.3452 0.1425,0.10663 0.3092,0.18534 0.5008,0.23667 0.2256,0.0519 0.4469,0.09 0.663,0.11369 0.2182,0.0157 0.4188,0.001 0.602,-0.0439 0.1933,-0.0509 0.3581,-0.13962 0.4945,-0.26561 0.1466,-0.13185 0.2516,-0.31711 0.3158,-0.55656 0.038,-0.14369 0.074,-0.32247 0.1054,-0.53641 0.04,-0.2118 0.045,-0.4413 0.018,-0.68834 -0.018,-0.25286 -0.085,-0.51493 -0.2005,-0.78547 -0.1077,-0.26842 -0.2894,-0.53067 -0.5457,-0.78756 -0.2461,-0.2627 -0.5816,-0.51099 -1.0067,-0.74464 -0.417,-0.23151 -0.9492,-0.43397 -1.5957,-0.60719 l -0.1912,-0.0512 c -0.7227,-0.17653 -1.3826,-0.28493 -1.9792,-0.32505 -0.1472,-0.009 -0.2902,-0.0131 -0.4295,-0.0103 z m 88.1775,0.12816 c -0.7284,0 -1.3549,0.0836 -1.8794,0.25115 -0.5245,0.16753 -0.9685,0.38573 -1.3328,0.65526 -0.3642,0.26951 -0.6594,0.57185 -0.8852,0.90692 -0.2258,0.33509 -0.4007,0.67056 -0.5245,1.00562 -0.1238,0.33507 -0.2074,0.65167 -0.2511,0.95033 -0.044,0.29867 -0.066,0.54288 -0.066,0.73226 0,0.42977 0.1529,0.78307 0.4588,1.05987 0.306,0.26953 0.7067,0.40413 1.202,0.40413 0.1603,0 0.3352,-0.0291 0.5246,-0.0873 0.1966,-0.0583 0.3751,-0.14954 0.5353,-0.27337 0.1676,-0.12382 0.3057,-0.28392 0.415,-0.48059 0.1093,-0.20397 0.1643,-0.44818 0.1643,-0.73226 0,-0.17481 0.014,-0.35682 0.043,-0.5462 0.036,-0.1967 0.1094,-0.37513 0.2186,-0.53539 0.1166,-0.16026 0.2843,-0.29128 0.5028,-0.39325 0.2186,-0.10927 0.5097,-0.16383 0.8739,-0.16383 0.1384,0 0.3061,0.0143 0.5028,0.0434 0.204,0.0218 0.3967,0.0876 0.5788,0.1969 0.1894,0.10197 0.3464,0.26204 0.4702,0.48059 0.1311,0.21852 0.1964,0.51726 0.1964,0.89607 0,0.36419 -0.084,0.67011 -0.2512,0.91776 -0.1675,0.2404 -0.3786,0.4591 -0.6335,0.65576 -0.255,0.1967 -0.5282,0.38582 -0.8196,0.56793 -0.2914,0.18212 -0.5646,0.39727 -0.8196,0.64492 -0.2549,0.24041 -0.466,0.52793 -0.6335,0.863 -0.1676,0.33509 -0.2517,0.75059 -0.2517,1.24592 0,0.1384 0.022,0.29136 0.066,0.45889 0.051,0.16754 0.1346,0.32406 0.2511,0.46974 0.1239,0.14568 0.2845,0.26959 0.4812,0.37156 0.2039,0.0947 0.4624,0.14211 0.7756,0.14211 0.5172,0 0.896,-0.12745 1.1364,-0.38241 0.2476,-0.25495 0.3715,-0.5792 0.3715,-0.97255 0,-0.15298 0.029,-0.28755 0.087,-0.4041 0.058,-0.12385 0.1093,-0.21511 0.153,-0.27337 0.102,-0.1384 0.2549,-0.28421 0.4589,-0.43719 0.2112,-0.16026 0.4371,-0.33155 0.6775,-0.51367 0.2476,-0.18211 0.499,-0.38245 0.7539,-0.601 0.2623,-0.21852 0.4988,-0.45865 0.7101,-0.72088 0.2112,-0.26223 0.3825,-0.54978 0.5136,-0.86299 0.1384,-0.31324 0.2078,-0.6594 0.2078,-1.03818 0,-0.66288 -0.1056,-1.26751 -0.3168,-1.81385 -0.2113,-0.55361 -0.5248,-1.02721 -0.94,-1.42057 -0.4152,-0.40066 -0.9357,-0.71012 -1.5622,-0.92864 -0.6192,-0.22582 -1.3405,-0.33848 -2.1637,-0.33848 z m 0,11.90988 c -0.5827,0 -1.0308,0.14171 -1.3441,0.42579 -0.3132,0.28411 -0.4697,0.73938 -0.4697,1.36583 0,0.61916 0.1565,1.078 0.4697,1.37666 0.3133,0.29136 0.7614,0.43717 1.3441,0.43717 0.5682,0 1.0092,-0.14581 1.3225,-0.43717 0.3132,-0.29866 0.4697,-0.7575 0.4697,-1.37666 0,-0.62645 -0.1494,-1.08172 -0.448,-1.36583 -0.2914,-0.28408 -0.7395,-0.42579 -1.3442,-0.42579 z m -48.119,26.94358 c -0.1694,-0.003 -0.3233,0.0182 -0.462,0.0651 -0.2753,0.086 -0.5095,0.23786 -0.7022,0.4553 -0.1907,0.20955 -0.3475,0.46564 -0.4708,0.76893 -0.1155,0.30541 -0.2177,0.62288 -0.3059,0.9524 l -0.555,2.07118 -0.6589,-0.17621 c -0.204,-0.0547 -0.4114,-0.0975 -0.6217,-0.12867 -0.2003,-0.0369 -0.3915,-0.0294 -0.5736,0.0227 -0.1821,0.0521 -0.3493,0.1584 -0.5018,0.31938 -0.1446,0.16306 -0.262,0.41349 -0.3524,0.75083 -0.086,0.32168 -0.1073,0.58904 -0.064,0.80256 0.051,0.21561 0.1427,0.39193 0.2744,0.52811 0.1317,0.13621 0.2918,0.24577 0.4796,0.3297 0.1976,0.0782 0.398,0.14483 0.602,0.19947 l 0.6594,0.17674 -1.0408,3.88347 c -0.1282,0.47858 -0.2432,0.93933 -0.3452,1.38288 -0.092,0.4378 -0.1537,0.85455 -0.1839,1.25005 -0.022,0.39761 10e-5,0.76927 0.067,1.11519 0.077,0.34015 0.2154,0.65508 0.4154,0.94411 0.21,0.28332 0.4956,0.53634 0.8563,0.75914 0.3686,0.22487 0.8315,0.41196 1.3886,0.56121 0.353,0.0946 0.6996,0.14978 1.0402,0.16537 0.3406,0.0156 0.6522,-0.019 0.9354,-0.10285 0.2831,-0.0839 0.5259,-0.22063 0.7281,-0.41031 0.21,-0.18757 0.3572,-0.43807 0.4413,-0.7519 0.082,-0.30596 0.1177,-0.56528 0.1075,-0.77824 -0.01,-0.21297 -0.067,-0.39238 -0.1711,-0.53795 -0.096,-0.14346 -0.2411,-0.26218 -0.4346,-0.35605 -0.1835,-0.0996 -0.4162,-0.18735 -0.6986,-0.26303 -0.2589,-0.0694 -0.4463,-0.1698 -0.5623,-0.30181 -0.1139,-0.13983 -0.1863,-0.294 -0.217,-0.46198 -0.031,-0.16799 -0.031,-0.34047 0,-0.51726 0.041,-0.18257 0.082,-0.35211 0.1235,-0.50904 l 1.1038,-4.11861 0.9648,0.2584 c 0.204,0.0547 0.4114,0.0975 0.6217,0.12866 0.2124,0.0233 0.4095,0.009 0.5917,-0.0434 0.1899,-0.05 0.3571,-0.15632 0.5017,-0.31938 0.1525,-0.16094 0.272,-0.40232 0.3582,-0.72398 0.09,-0.33734 0.1099,-0.61378 0.058,-0.82941 -0.044,-0.21352 -0.1354,-0.38931 -0.275,-0.52761 -0.1316,-0.13618 -0.2973,-0.23971 -0.4971,-0.31006 -0.1977,-0.0782 -0.3986,-0.14431 -0.6025,-0.19894 l -0.9653,-0.25893 0.555,-2.07118 c 0.088,-0.32951 0.1551,-0.65648 0.1999,-0.98081 0.053,-0.32224 0.049,-0.62182 -0.011,-0.89866 -0.05,-0.28257 -0.1735,-0.52993 -0.3689,-0.74207 -0.1933,-0.21998 -0.4863,-0.3822 -0.8785,-0.48731 -0.2001,-0.0536 -0.3846,-0.0819 -0.554,-0.0852 z m -88.5439,0.77721 c -0.618,0.008 -1.3385,0.12256 -2.1616,0.34311 -0.2445,0.0655 -0.5345,0.15619 -0.8703,0.27234 -0.3276,0.11398 -0.6657,0.27045 -1.0144,0.46871 -0.3487,0.19825 -0.679,0.44833 -0.9911,0.75033 -0.3144,0.29387 -0.5701,0.65937 -0.7674,1.09659 -0.1973,0.4372 -0.3179,0.94978 -0.3613,1.53789 -0.035,0.58592 0.051,1.26593 0.2584,2.04018 l 0.7669,2.8608 c 0.2249,0.83945 0.5533,1.51152 0.9855,2.01592 0.4321,0.50437 0.9287,0.87328 1.4893,1.10741 0.5688,0.23194 1.1806,0.34753 1.8355,0.34676 0.655,-7.9e-4 1.3213,-0.0874 1.9999,-0.26045 0.5135,-0.13758 1.0516,-0.32983 1.6144,-0.57671 0.5709,-0.24908 1.0806,-0.54724 1.5291,-0.89453 0.4485,-0.3473 0.7933,-0.74134 1.0335,-1.18132 0.2381,-0.44812 0.2861,-0.93683 0.1442,-1.46658 -0.068,-0.25265 -0.167,-0.44432 -0.2982,-0.57515 -0.1333,-0.13899 -0.2856,-0.23389 -0.4563,-0.28422 -0.1707,-0.0504 -0.3584,-0.0653 -0.5627,-0.0455 -0.1962,0.0176 -0.3957,0.0534 -0.5995,0.108 -0.4238,0.11356 -0.7473,0.24419 -0.9699,0.39119 -0.2167,0.13668 -0.3789,0.28027 -0.4868,0.43151 -0.1,0.14904 -0.1731,0.29993 -0.2197,0.45217 -0.047,0.15222 -0.1075,0.29933 -0.1829,0.44183 -0.067,0.14031 -0.1795,0.27559 -0.3369,0.40513 -0.1515,0.11922 -0.3903,0.2222 -0.7163,0.30956 -0.2852,0.0764 -0.5412,0.0839 -0.7674,0.0222 -0.2261,-0.0617 -0.4245,-0.16558 -0.5948,-0.31213 -0.1621,-0.14872 -0.2958,-0.3226 -0.4015,-0.52141 -0.1057,-0.19878 -0.1848,-0.39608 -0.2372,-0.59169 l -0.3142,-1.17356 4.8654,-1.30381 c 0.4319,-0.11573 0.7507,-0.26234 0.9565,-0.43977 0.2058,-0.17743 0.3407,-0.35779 0.4051,-0.54104 0.07,-0.19357 0.091,-0.37793 0.062,-0.55346 -0.032,-0.18367 -0.065,-0.34089 -0.1002,-0.47128 l -0.2031,-0.75758 c -0.079,-0.29339 -0.1786,-0.60322 -0.3008,-0.92863 -0.1243,-0.33356 -0.2874,-0.64767 -0.4888,-0.94308 -0.2036,-0.30358 -0.4609,-0.57984 -0.7721,-0.82839 -0.3111,-0.24855 -0.6942,-0.43846 -1.1487,-0.56999 -0.4545,-0.13152 -0.995,-0.19193 -1.6211,-0.18137 z m 201.0781,2.22311 c -0.4354,0 -0.7941,0.0812 -1.0759,0.24339 -0.2732,0.16224 -0.4865,0.37558 -0.6402,0.64026 -0.1537,0.26469 -0.2607,0.56799 -0.3204,0.90951 -0.06,0.34155 -0.089,0.69146 -0.089,1.05008 v 3.12486 l 0.666,4.14962 c 0,0.27323 0.013,0.53813 0.038,0.79428 0.034,0.25614 0.1027,0.48651 0.2052,0.69143 0.1024,0.19638 0.2473,0.3587 0.4351,0.48678 0.1964,0.11954 0.4569,0.17931 0.7813,0.17931 0.3245,0 0.5806,-0.0598 0.7685,-0.17931 0.1964,-0.12808 0.3461,-0.2904 0.4485,-0.48678 0.1025,-0.20492 0.1661,-0.43529 0.1917,-0.69143 0.034,-0.25615 0.051,-0.52105 0.051,-0.79428 l 0.6408,-4.09845 v -3.15071 c 0,-0.35862 -0.03,-0.70853 -0.09,-1.05008 -0.051,-0.34152 -0.1537,-0.64482 -0.3074,-0.90951 -0.1537,-0.2732 -0.3671,-0.49096 -0.6403,-0.65317 -0.2732,-0.17076 -0.6275,-0.2558 -1.063,-0.2558 z m -201.6585,0.56999 c 0.07,0.003 0.1348,0.01 0.1949,0.0222 0.2484,0.047 0.4491,0.15938 0.6015,0.33692 0.1605,0.17536 0.2894,0.41129 0.3865,0.70847 0.1031,0.28686 0.2059,0.62206 0.3085,1.00513 l -3.0561,0.81854 -0.2295,-0.85524 c -0.037,-0.13854 -0.067,-0.30094 -0.091,-0.48678 -0.024,-0.18587 -0.01,-0.36931 0.049,-0.55036 0.054,-0.1892 0.1609,-0.36214 0.3199,-0.51832 0.1672,-0.15835 0.4178,-0.28202 0.7519,-0.37155 0.2995,-0.0803 0.5543,-0.11663 0.7643,-0.10904 z m 201.6585,13.13408 c -0.683,0 -1.2079,0.16621 -1.5751,0.49919 -0.3671,0.333 -0.5508,0.86717 -0.5508,1.60147 0,0.72575 0.1837,1.26325 0.5508,1.61332 0.3672,0.34155 0.8921,0.51263 1.5751,0.51263 0.666,0 1.1827,-0.17108 1.5498,-0.51263 0.3672,-0.35007 0.5509,-0.88757 0.5509,-1.61332 0,-0.7343 -0.1755,-1.26847 -0.5256,-1.60147 -0.3415,-0.33298 -0.8664,-0.49919 -1.5751,-0.49919 z"
         id="path1057" />
      <path
         inkscape:connector-curvature="0"
         style="opacity:1;fill:#e13731;fill-opacity:1;fill-rule:nonzero;stroke:none;stroke-width:0.26458332;stroke-linecap:round;stroke-linejoin:round;stroke-miterlimit:4;stroke-dasharray:none;stroke-dashoffset:10;stroke-opacity:1"
         d="m 1076.7194,375.10891 a 14.883637,13.948295 0 0 1 6.0968,11.23859 14.883637,13.948295 0 0 1 -10.6024,13.34648 13.708362,12.846879 0 0 0 12.7392,-12.81525 13.708362,12.846879 0 0 0 -8.2336,-11.76982 z m 194.0853,8.05274 c 1.6586,1.46187 2.1488,4.0254 0.8661,5.91127 l -9.9058,14.56552 c -0.7737,1.13742 -1.8784,1.9005 -3.0866,2.19832 2.1097,0.88315 4.4492,0.0785 5.7738,-1.86862 l 9.4247,-13.85705 c 1.4158,-2.08156 0.5644,-5.03629 -1.6635,-6.2084 z m -137.8918,1.13326 15.6047,4.254 c 2.4285,0.66323 4.0686,3.19685 3.2133,5.56453 l -6.2947,17.42321 c -0.6686,1.85055 -2.2652,3.33497 -4.0463,3.45199 l 0.6522,0.26149 c 2.3374,0.93469 4.7091,-0.84558 5.5645,-3.21323 l 6.2942,-17.42168 c 0.8553,-2.36767 -0.7843,-4.90286 -3.2128,-5.56609 l -16.9183,-4.61055 c -0.2892,-0.0788 -0.5751,-0.12464 -0.8568,-0.14367 z m 82.2699,12.07937 c 1.4006,1.90029 2.1618,3.77264 1.7467,5.48545 l -8.4574,16.74524 0.9653,-0.0134 c 0.9938,-0.0146 1.8649,-0.66638 2.1586,-1.61592 l 8.0718,-15.50088 c 0.293,-0.94922 -0.058,-1.97898 -0.8692,-2.55177 z m 89.8514,25.1225 a 16.80539,15.749278 0 0 1 6.8838,12.69019 16.80539,15.749278 0 0 1 -11.9714,15.06987 15.478365,14.505649 0 0 0 14.3842,-14.47043 15.478365,14.505649 0 0 0 -9.2966,-13.28963 z m -249.762,13.72061 c -0.3447,-0.001 -0.6758,0.0324 -0.9943,0.0951 l 18.5963,0.0811 c 2.8944,0.0139 5.4698,2.33944 5.2245,5.22346 l -1.8061,21.22349 c -0.1918,2.25415 -1.5233,4.37799 -3.4665,5.03794 l 0.802,0.0956 c 2.8741,0.34247 4.9781,-2.33995 5.2235,-5.22399 l 1.8061,-21.22143 c 0.2454,-2.88402 -2.3301,-5.21161 -5.2245,-5.22553 z m 172.5357,11.58793 15.6052,4.25399 c 2.4285,0.66321 4.0681,3.19686 3.2128,5.56451 l -6.2947,17.42323 c -0.6686,1.85055 -2.2653,3.33497 -4.0463,3.452 l 0.6521,0.26148 c 2.3375,0.9347 4.7092,-0.84558 5.5646,-3.21325 l 6.2942,-17.42168 c 0.8553,-2.36768 -0.7843,-4.90283 -3.2128,-5.56607 l -16.9183,-4.61057 c -0.2893,-0.0788 -0.5751,-0.12462 -0.8568,-0.14364 z m -74.9029,4.00854 a 13.537508,12.686762 15 0 1 2.7109,11.30938 13.537508,12.686762 15 0 1 -12.4571,9.22993 12.468529,11.684961 15 0 0 14.2095,-8.26047 12.468529,11.684961 15 0 0 -4.4633,-12.27884 z m -46.5357,41.62846 c 1.1991,1.62692 1.8504,3.22995 1.495,4.69635 l -7.2409,14.33658 0.8263,-0.0113 c 0.8508,-0.0125 1.5971,-0.57095 1.8485,-1.3839 l 6.9107,-13.27052 c 0.2508,-0.81267 -0.049,-1.69498 -0.7442,-2.18538 z m 202.9003,4.47 c 1.6585,1.46187 2.1487,4.0254 0.8661,5.91127 l -9.9059,14.56552 c -0.7737,1.13742 -1.8778,1.9005 -3.0861,2.19832 2.1098,0.88315 4.4493,0.0785 5.7738,-1.86862 l 9.4242,-13.85705 c 1.4158,-2.08156 0.5645,-5.03627 -1.6634,-6.2084 z m -112.5766,1.65674 c 1.0963,1.6497 0.9262,3.98187 -0.6212,5.31648 l -11.9507,10.30791 c -0.9333,0.80491 -2.0659,1.20946 -3.1806,1.187 1.621,1.25351 3.8323,1.10006 5.4301,-0.27803 l 11.3694,-9.80662 c 1.7079,-1.47312 1.6562,-4.22786 0,-5.75884 z"
         id="path1059" />
    </g>
  </g>
</svg>
