<?xml version="1.0" encoding="UTF-8" standalone="no"?>
<!-- Created with Inkscape (http://www.inkscape.org/) -->

<svg
   xmlns:dc="http://purl.org/dc/elements/1.1/"
   xmlns:cc="http://creativecommons.org/ns#"
   xmlns:rdf="http://www.w3.org/1999/02/22-rdf-syntax-ns#"
   xmlns:svg="http://www.w3.org/2000/svg"
   xmlns="http://www.w3.org/2000/svg"
   xmlns:sodipodi="http://sodipodi.sourceforge.net/DTD/sodipodi-0.dtd"
   xmlns:inkscape="http://www.inkscape.org/namespaces/inkscape"
   width="1200"
   height="700"
   viewBox="0 0 317.49999 185.20833"
   version="1.1"
   id="svg1117"
   inkscape:version="0.92.4 (5da689c313, 2019-01-14)"
   sodipodi:docname="game_cover_5.svg">
  <defs
     id="defs1111" />
  <sodipodi:namedview
     id="base"
     pagecolor="#ffffff"
     bordercolor="#666666"
     borderopacity="1.0"
     inkscape:pageopacity="0.0"
     inkscape:pageshadow="2"
     inkscape:zoom="1.1714286"
     inkscape:cx="600"
     inkscape:cy="350"
     inkscape:document-units="px"
     inkscape:current-layer="layer1"
     showgrid="false"
     inkscape:window-width="1920"
     inkscape:window-height="1017"
     inkscape:window-x="-8"
     inkscape:window-y="-8"
     inkscape:window-maximized="1"
     units="px"
     inkscape:snap-bbox="true"
     inkscape:bbox-nodes="true"
     inkscape:snap-global="false">
    <inkscape:grid
       type="xygrid"
       id="grid840" />
  </sodipodi:namedview>
  <metadata
     id="metadata1114">
    <rdf:RDF>
      <cc:Work
         rdf:about="">
        <dc:format>image/svg+xml</dc:format>
        <dc:type
           rdf:resource="http://purl.org/dc/dcmitype/StillImage" />
        <dc:title />
      </cc:Work>
    </rdf:RDF>
  </metadata>
  <g
     inkscape:label="Layer 1"
     inkscape:groupmode="layer"
     id="layer1"
     transform="translate(0,-111.79165)">
    <g
       id="g5524"
       transform="translate(-549.85205,13.257425)">
      <rect
         style="opacity:1;fill:#a634e8;fill-opacity:1;fill-rule:nonzero;stroke:none;stroke-width:0.26458332;stroke-linecap:round;stroke-linejoin:round;stroke-miterlimit:4;stroke-dasharray:none;stroke-dashoffset:0;stroke-opacity:0"
         id="rect5506"
         width="317.5"
         height="185.20833"
         x="549.85205"
         y="98.534225" />
      <path
         inkscape:connector-curvature="0"
         style="opacity:1;fill:#a026e6;fill-opacity:1;fill-rule:nonzero;stroke:none;stroke-width:0.26458332;stroke-linecap:round;stroke-linejoin:round;stroke-miterlimit:4;stroke-dasharray:none;stroke-dashoffset:10;stroke-opacity:1"
         d="m 600.52287,122.48746 a 13.708362,12.846879 0 0 0 -13.70872,12.84676 13.708362,12.846879 0 0 0 13.70872,12.84676 13.708362,12.846879 0 0 0 13.70821,-12.84676 13.708362,12.846879 0 0 0 -13.70821,-12.84676 z m 183.76656,1.39165 c -1.60645,-0.0376 -3.15639,0.7442 -4.03903,2.23295 l -8.41499,14.19344 c -1.28388,2.16545 -0.55163,5.01129 1.66346,6.20736 l 14.02499,7.5737 c 2.21507,1.19613 4.79145,0.41807 6.20737,-1.66346 l 9.42475,-13.85702 c 1.41579,-2.08159 0.56442,-5.03529 -1.66347,-6.20739 l -15.03474,-7.91011 c -0.6962,-0.36629 -1.43814,-0.55239 -2.16834,-0.56947 z m -122.57856,8.86354 c -1.88036,0.0901 -3.4898,1.45595 -4.22765,3.36362 l -5.95778,15.4037 c -0.65154,2.43165 0.87583,4.63074 3.21324,5.56556 l 16.58142,6.63059 c 2.33745,0.93472 4.71021,-0.84555 5.56555,-3.21323 l 6.29419,-17.42271 c 0.85534,-2.36767 -0.78476,-4.90233 -3.21324,-5.56556 l -16.91783,-4.61108 c -0.4554,-0.12411 -0.90398,-0.17169 -1.3379,-0.15089 z m 69.2707,3.01686 c -0.2562,-0.0132 -0.51594,0.0166 -0.76791,0.091 -0.26185,0.0773 -0.50776,0.19995 -0.72657,0.36327 l -12.00237,12.43129 c -0.79578,0.59598 -1.11712,1.63661 -0.79633,2.57763 l 6.68176,13.89837 c 0.32041,0.94176 1.21088,1.56972 2.20555,1.55546 l 13.13977,0.37103 c 0.99379,-0.0146 1.86539,-0.66741 2.15904,-1.61695 l 8.07186,-15.50035 c 0.29295,-0.94922 -0.0581,-1.97951 -0.86972,-2.55228 L 732.1846,136.17505 c -0.35806,-0.25202 -0.77603,-0.39346 -1.20303,-0.4155 z m 97.1491,32.97732 a 15.478365,14.505649 0 0 0 -15.47863,14.50557 15.478365,14.505649 0 0 0 15.47863,14.5056 15.478365,14.505649 0 0 0 15.47813,-14.5056 15.478365,14.505649 0 0 0 -15.47813,-14.50557 z m -243.57995,14.93501 c -2.8944,-0.0125 -4.91465,2.34723 -5.22449,5.225 l -2.03295,18.87947 c 10e-6,2.89441 2.35093,4.88186 5.225,5.22449 l 20.38842,2.42983 c 2.87408,0.34248 4.97914,-2.34045 5.22449,-5.22449 l 1.80558,-21.223 c 0.24535,-2.88403 -2.3301,-5.21059 -5.22449,-5.22449 z m 172.05513,11.58172 c -1.88036,0.0901 -3.4898,1.45595 -4.22765,3.36362 l -5.95778,15.40319 c -0.65154,2.43163 0.87583,4.63074 3.21324,5.56557 l 16.58142,6.63059 c 2.33745,0.93469 4.71021,-0.84559 5.56555,-3.21324 l 6.29419,-17.4227 c 0.85534,-2.36768 -0.78476,-4.90233 -3.21324,-5.56557 l -16.91783,-4.61107 c -0.4554,-0.12415 -0.90397,-0.17116 -1.3379,-0.15039 z m -82.31126,1.32913 a 12.46853,11.684961 15 0 0 -11.73571,8.51162 12.46853,11.684961 15 0 0 9.01908,14.51382 12.46853,11.684961 15 0 0 15.06833,-8.05944 12.46853,11.684961 15 0 0 -9.0196,-14.51385 12.46853,11.684961 15 0 0 -3.3321,-0.45215 z m -50.18763,36.5497 c -0.21934,-0.0113 -0.4416,0.0144 -0.65732,0.078 -0.22419,0.0662 -0.43485,0.17126 -0.62219,0.31109 l -10.27586,10.64276 c -0.6813,0.51022 -0.95677,1.40145 -0.68213,2.2071 l 5.7211,11.899 c 0.27432,0.80629 1.03667,1.34393 1.88826,1.3317 l 11.24944,0.31782 c 0.85084,-0.0125 1.59705,-0.57145 1.84847,-1.3844 l 6.91069,-13.27103 c 0.25081,-0.81269 -0.0498,-1.69447 -0.74466,-2.18487 l -13.60589,-9.59168 c -0.30655,-0.21574 -0.66434,-0.33668 -1.02991,-0.35552 z m 88.84006,3.36362 c -1.03072,-0.006 -2.05629,0.37717 -2.86288,1.16531 l -10.57352,10.33216 c -1.61322,1.57634 -1.6396,4.20854 0,5.75728 l 10.38128,9.80665 c 1.63957,1.54879 4.04977,1.47304 5.75779,0 l 11.36933,-9.80665 c 1.70792,-1.47312 1.65625,-4.22629 0,-5.75728 l -11.17709,-10.33216 c -0.82811,-0.7655 -1.8642,-1.15965 -2.89491,-1.16531 z m 109.80724,1.13377 c -1.60644,-0.0376 -3.1564,0.74419 -4.03902,2.23295 l -8.415,14.19344 c -1.28388,2.16548 -0.55162,5.01131 1.66347,6.20736 l 14.02498,7.5737 c 2.21506,1.19616 4.79144,0.41807 6.20739,-1.66346 l 9.42472,-13.85702 c 1.41581,-2.08159 0.56496,-5.03529 -1.66293,-6.20737 l -15.03527,-7.91011 c -0.6962,-0.36629 -1.43814,-0.5524 -2.16834,-0.56949 z"
         id="path5508" />
      <path
         inkscape:connector-curvature="0"
         style="color:#000000;font-style:normal;font-variant:normal;font-weight:normal;font-stretch:normal;font-size:medium;line-height:normal;font-family:sans-serif;font-variant-ligatures:normal;font-variant-position:normal;font-variant-caps:normal;font-variant-numeric:normal;font-variant-alternates:normal;font-feature-settings:normal;text-indent:0;text-align:start;text-decoration:none;text-decoration-line:none;text-decoration-style:solid;text-decoration-color:#000000;letter-spacing:normal;word-spacing:normal;text-transform:none;writing-mode:lr-tb;direction:ltr;text-orientation:mixed;dominant-baseline:auto;baseline-shift:baseline;text-anchor:start;white-space:normal;shape-padding:0;clip-rule:nonzero;display:inline;overflow:visible;visibility:visible;opacity:1;isolation:auto;mix-blend-mode:normal;color-interpolation:sRGB;color-interpolation-filters:linearRGB;solid-color:#000000;solid-opacity:1;vector-effect:none;fill:#ad45eb;fill-opacity:1;fill-rule:nonzero;stroke:none;stroke-width:1.32291675;stroke-linecap:round;stroke-linejoin:round;stroke-miterlimit:4;stroke-dasharray:none;stroke-dashoffset:0;stroke-opacity:1;color-rendering:auto;image-rendering:auto;shape-rendering:auto;text-rendering:auto;enable-background:accumulate"
         d="m 600.50117,127.57655 c -0.72844,0 -1.355,0.0836 -1.87948,0.25115 -0.52447,0.16753 -0.96903,0.38626 -1.33325,0.65577 -0.36422,0.26953 -0.6594,0.57184 -0.88521,0.90693 -0.22582,0.33507 -0.40017,0.67004 -0.524,1.0051 -0.12384,0.33507 -0.20796,0.6522 -0.25167,0.95086 -0.0437,0.29864 -0.0656,0.54235 -0.0656,0.73174 0,0.42976 0.15295,0.78306 0.45889,1.05986 0.30594,0.26953 0.70666,0.40463 1.20199,0.40463 0.16026,0 0.33513,-0.0296 0.52452,-0.0878 0.19668,-0.0583 0.37511,-0.14901 0.53537,-0.27284 0.16754,-0.12385 0.30621,-0.28445 0.41547,-0.48112 0.10927,-0.20397 0.16382,-0.44765 0.16382,-0.73173 0,-0.17484 0.0143,-0.35684 0.0434,-0.54623 0.0364,-0.19667 0.10932,-0.3751 0.21859,-0.53536 0.11655,-0.16026 0.28428,-0.29181 0.50281,-0.39378 0.21853,-0.10927 0.51015,-0.1638 0.87437,-0.1638 0.1384,0 0.30561,0.0148 0.50229,0.0439 0.20396,0.0219 0.39718,0.0871 0.57929,0.19637 0.1894,0.10197 0.34591,0.26257 0.46974,0.48109 0.13112,0.21855 0.19689,0.51679 0.19689,0.89557 0,0.36422 -0.0841,0.67061 -0.25166,0.91828 -0.16754,0.24038 -0.37861,0.45858 -0.63356,0.65527 -0.25495,0.19667 -0.52821,0.38632 -0.81959,0.56843 -0.29137,0.18212 -0.56463,0.39675 -0.81958,0.6444 -0.25495,0.2404 -0.46602,0.52845 -0.63356,0.86352 -0.16754,0.33506 -0.25115,0.75006 -0.25115,1.24539 0,0.1384 0.0214,0.29136 0.0651,0.45889 0.051,0.16754 0.13511,0.32406 0.25166,0.46974 0.12384,0.14568 0.28392,0.26959 0.48059,0.37156 0.20396,0.0947 0.46244,0.14211 0.77567,0.14211 0.51718,0 0.89598,-0.12745 1.13636,-0.38241 0.24767,-0.25495 0.37155,-0.5792 0.37156,-0.97255 -10e-6,-0.15296 0.029,-0.28755 0.0873,-0.4041 0.0583,-0.12385 0.10925,-0.21511 0.15296,-0.27337 0.10198,-0.1384 0.25493,-0.28421 0.45889,-0.43719 0.21124,-0.16026 0.43709,-0.33102 0.67747,-0.51314 0.24767,-0.18211 0.49901,-0.38248 0.75396,-0.601 0.26224,-0.21854 0.49931,-0.45916 0.71056,-0.72141 0.21124,-0.26223 0.38202,-0.54975 0.51314,-0.86299 0.13841,-0.31322 0.20774,-0.6594 0.20774,-1.03817 0,-0.66289 -0.10553,-1.26752 -0.31678,-1.81386 -0.21124,-0.55361 -0.52426,-1.02671 -0.93947,-1.42007 -0.41521,-0.40063 -0.93624,-0.71062 -1.5627,-0.92913 -0.61917,-0.22583 -1.34004,-0.33849 -2.16317,-0.33849 z m 187.03819,2.7218 c -0.43546,0 -0.79414,0.0812 -1.0759,0.24339 -0.27323,0.16224 -0.48658,0.3756 -0.64027,0.64029 -0.15369,0.26469 -0.26063,0.56796 -0.3204,0.90951 -0.0598,0.34152 -0.0894,0.69143 -0.0894,1.05005 v 3.12539 l 0.66559,4.14962 c 0,0.27323 0.0131,0.5376 0.0388,0.79375 0.0342,0.25614 0.10218,0.48702 0.20464,0.69194 0.10246,0.1964 0.24779,0.35822 0.43563,0.48627 0.19638,0.11954 0.45689,0.17934 0.78135,0.17934 0.32446,0 0.58058,-0.0598 0.76843,-0.17934 0.19638,-0.12805 0.34557,-0.28987 0.44803,-0.48627 0.10246,-0.20492 0.16662,-0.4358 0.19224,-0.69194 0.0341,-0.25615 0.0512,-0.52052 0.0512,-0.79375 l 0.64027,-4.09845 v -3.15071 c 0,-0.35862 -0.0296,-0.70906 -0.0894,-1.05058 -0.0512,-0.34155 -0.15378,-0.64432 -0.30748,-0.90901 -0.15369,-0.27323 -0.36704,-0.49096 -0.64027,-0.65317 -0.27322,-0.17079 -0.62752,-0.25633 -1.06298,-0.25633 z m -187.03819,9.18808 c -0.58275,0 -1.03088,0.14224 -1.34411,0.42632 -0.31322,0.28408 -0.46974,0.73935 -0.46974,1.36581 0,0.61918 0.15652,1.07802 0.46974,1.37665 0.31323,0.29139 0.76136,0.43667 1.34411,0.43667 0.56817,0 1.00865,-0.14528 1.32188,-0.43667 0.31323,-0.29863 0.46974,-0.75747 0.46974,-1.37665 0,-0.62646 -0.14938,-1.08173 -0.44804,-1.36581 -0.29137,-0.28408 -0.73898,-0.42632 -1.34358,-0.42632 z m 73.89109,2.09391 a 2.0014459,2.0014459 0 0 0 -1.37666,0.59687 l -8.18451,8.11888 -3.0608,-3.03702 a 2.0014867,2.0014867 0 1 0 -2.81843,2.8422 l 4.46691,4.43799 a 2.0014459,2.0014459 0 0 0 2.81895,0 l 9.59631,-9.51984 a 2.0014459,2.0014459 0 0 0 -1.44177,-3.43908 z m 57.71793,1.00719 c -0.43546,0 -0.79414,0.0812 -1.07591,0.24339 -0.27323,0.16224 -0.48658,0.37558 -0.64027,0.64027 -0.15369,0.26468 -0.26062,0.56798 -0.32039,0.9095 -0.0598,0.34155 -0.0899,0.69146 -0.0899,1.05008 v 3.12486 l 0.66611,4.14962 c 0,0.27324 0.0131,0.53811 0.0388,0.79428 0.0342,0.25614 0.10218,0.48649 0.20464,0.69143 0.10246,0.19638 0.24778,0.3587 0.43563,0.48679 0.19638,0.11953 0.45689,0.1793 0.78135,0.1793 0.32445,0 0.58058,-0.0598 0.76842,-0.1793 0.19639,-0.12809 0.34558,-0.29041 0.44804,-0.48679 0.10246,-0.20494 0.16662,-0.43529 0.19224,-0.69143 0.0341,-0.25617 0.0512,-0.52104 0.0512,-0.79428 l 0.64027,-4.09845 v -3.15071 c 0,-0.35862 -0.0296,-0.70853 -0.0894,-1.05008 -0.0512,-0.34152 -0.15379,-0.64481 -0.30748,-0.9095 -0.15369,-0.27321 -0.36704,-0.49044 -0.64027,-0.65268 -0.27323,-0.17076 -0.62753,-0.2563 -1.06298,-0.2563 z m 55.42917,1.41489 c -0.68307,0 -1.20846,0.16671 -1.57562,0.49971 -0.36715,0.33301 -0.55035,0.86665 -0.55035,1.60095 0,0.72575 0.1832,1.26378 0.55035,1.61385 0.36716,0.34152 0.89255,0.5121 1.57562,0.5121 0.66599,0 1.18263,-0.17058 1.54977,-0.5121 0.36716,-0.35007 0.55036,-0.8881 0.55036,-1.61385 0,-0.7343 -0.17496,-1.26794 -0.52503,-1.60095 -0.34154,-0.333 -0.86641,-0.49971 -1.5751,-0.49971 z m -55.42917,12.28918 c -0.68308,0 -1.20847,0.16671 -1.57562,0.49972 -0.36715,0.33297 -0.55087,0.86661 -0.55087,1.60094 0,0.72575 0.18372,1.26325 0.55087,1.61332 0.36715,0.34155 0.89254,0.51263 1.57562,0.51263 0.66599,0 1.1821,-0.17108 1.54926,-0.51263 0.36715,-0.35007 0.55087,-0.88757 0.55087,-1.61332 0,-0.73433 -0.17496,-1.26797 -0.52504,-1.60094 -0.34153,-0.33301 -0.86641,-0.49972 -1.57509,-0.49972 z m 102.79371,19.18591 a 2.0014459,2.0014459 0 0 0 -1.37718,0.59685 l -8.18399,8.1194 -3.0613,-3.03752 a 2.0014867,2.0014867 0 1 0 -2.81843,2.84221 l 4.46741,4.43796 a 2.0014459,2.0014459 0 0 0 2.81845,0 l 9.59681,-9.51984 a 2.0014459,2.0014459 0 0 0 -1.44177,-3.43906 z m -240.97701,12.60801 c -0.1013,-5e-4 -0.20502,0.002 -0.31109,0.009 -0.4243,0.0274 -0.86314,0.10184 -1.3162,0.22323 -1.06721,0.28596 -1.86715,0.66254 -2.40037,1.12914 -0.53592,0.45653 -0.88869,0.99351 -1.05782,1.61075 -0.17183,0.60717 -0.19815,1.29374 -0.0791,2.06034 0.11908,0.7666 0.29745,1.59292 0.53485,2.47891 l -0.84594,0.22688 c -0.28191,0.0755 -0.54938,0.16319 -0.80306,0.26355 -0.2436,0.0976 -0.45009,0.23397 -0.61908,0.40875 -0.15892,0.17206 -0.26495,0.40013 -0.31833,0.68419 -0.0534,0.28408 -0.0205,0.64738 0.0982,1.09037 0.11061,0.41281 0.25834,0.72404 0.4439,0.9333 0.18286,0.19917 0.38755,0.33842 0.61391,0.41804 0.23374,0.0669 0.48217,0.0866 0.74466,0.0594 0.26986,-0.0399 0.54544,-0.0976 0.82734,-0.17311 l 0.84595,-0.22633 2.14457,8.00415 c 0.1187,0.44299 0.25323,0.86511 0.40411,1.26712 0.14818,0.39192 0.34091,0.72908 0.57826,1.01078 0.23465,0.27165 0.5239,0.46366 0.86713,0.57672 0.35329,0.11035 0.78671,0.0967 1.30018,-0.0408 0.5336,-0.14298 0.9308,-0.35192 1.19165,-0.62682 0.27093,-0.27763 0.44499,-0.59405 0.52245,-0.9493 0.0848,-0.36804 0.0935,-0.75851 0.0258,-1.17203 -0.0603,-0.42627 -0.15002,-0.86132 -0.26872,-1.30431 l -2.14457,-8.00365 0.90641,-0.24289 c 0.2517,-0.0674 0.50441,-0.15131 0.75809,-0.25164 0.25098,-0.11044 0.46095,-0.25313 0.62993,-0.42789 0.17636,-0.18753 0.29859,-0.41447 0.36743,-0.68111 0.0661,-0.2767 0.0439,-0.62177 -0.0667,-1.03455 -0.1187,-0.44299 -0.27709,-0.77245 -0.47542,-0.98909 -0.19833,-0.21664 -0.41921,-0.357 -0.66301,-0.42117 -0.23373,-0.0669 -0.48565,-0.0807 -0.75551,-0.0408 -0.26986,0.04 -0.53068,0.0938 -0.78238,0.16124 l -0.90589,0.24288 -0.17001,-0.63407 c -0.0486,-0.18124 -0.0922,-0.36386 -0.13075,-0.54777 -0.0385,-0.18394 -0.0577,-0.35703 -0.0579,-0.51885 0.01,-0.16449 0.0375,-0.30133 0.0837,-0.41081 0.0563,-0.11221 0.15516,-0.18754 0.29611,-0.22532 0.17116,-0.0459 0.33134,-0.0509 0.48111,-0.0155 0.14976,0.0354 0.30063,0.0327 0.45165,-0.008 0.18122,-0.0485 0.36906,-0.13097 0.56431,-0.24805 0.20531,-0.11975 0.37858,-0.27945 0.51934,-0.47903 0.14076,-0.19957 0.23901,-0.43656 0.29508,-0.71056 0.0661,-0.2767 0.0506,-0.59613 -0.0465,-0.95859 -0.10521,-0.39264 -0.28493,-0.70069 -0.53899,-0.92397 -0.24669,-0.23604 -0.54351,-0.39915 -0.89142,-0.48938 -0.26092,-0.0677 -0.54359,-0.10234 -0.84749,-0.10387 z m 79.48455,13.98209 c -0.4177,0.008 -0.79991,0.0723 -1.14618,0.19121 -0.45955,0.15063 -0.84959,0.40979 -1.17047,0.77722 -0.31076,0.36158 -0.54941,0.85381 -0.71624,1.4764 -0.11335,0.42304 -0.12321,0.82635 -0.0294,1.21076 0.0959,0.37645 0.25635,0.73596 0.4811,1.07849 0.22476,0.34253 0.48767,0.67009 0.78911,0.98185 0.30942,0.3139 0.61818,0.61446 0.92604,0.90228 0.24457,0.23664 0.4809,0.47096 0.70951,0.70331 0.23874,0.22651 0.44332,0.45263 0.61392,0.678 0.1706,0.22537 0.29318,0.45508 0.36742,0.68884 0.0844,0.22794 0.0966,0.45347 0.0367,0.67696 -0.0706,0.2634 -0.22786,0.45223 -0.47232,0.56637 -0.23434,0.10832 -0.50726,0.12062 -0.81856,0.0372 -0.15165,-0.0406 -0.30507,-0.0901 -0.46044,-0.14883 -0.15322,-0.0667 -0.29062,-0.146 -0.41134,-0.23823 -0.1106,-0.0981 -0.19676,-0.20677 -0.2589,-0.3261 -0.0542,-0.11716 -0.0637,-0.25678 -0.0289,-0.41857 0.11237,-0.48318 0.0695,-0.86688 -0.12815,-1.15083 -0.19768,-0.28395 -0.49594,-0.47959 -0.89504,-0.58653 -0.55075,-0.14759 -0.99165,-0.1456 -1.32292,0.005 -0.32329,0.15293 -0.54915,0.46884 -0.67747,0.94776 -0.0535,0.19955 -0.0886,0.42519 -0.10491,0.67747 -0.0141,0.24431 0.007,0.50257 0.0625,0.77412 0.0556,0.27154 0.15725,0.54668 0.30489,0.82579 0.15777,0.27326 0.3766,0.54131 0.65681,0.80459 0.28234,0.25533 0.63685,0.49573 1.06402,0.72142 0.42716,0.22566 0.94808,0.42132 1.56269,0.586 0.3113,0.0834 0.64934,0.14808 1.01338,0.19431 0.3619,0.0542 0.72422,0.0744 1.08727,0.0605 0.37102,-0.0118 0.73174,-0.0648 1.0821,-0.15917 0.35835,-0.0922 0.68859,-0.23942 0.99064,-0.4408 0.30419,-0.20936 0.57311,-0.47894 0.80719,-0.80975 0.24205,-0.32867 0.42719,-0.7329 0.55552,-1.21182 0.14116,-0.52681 0.15522,-1.01021 0.0424,-1.45108 -0.10273,-0.44672 -0.28184,-0.86283 -0.53795,-1.24799 -0.25611,-0.38515 -0.55914,-0.73993 -0.90847,-1.06452 -0.34719,-0.33258 -0.69065,-0.64725 -1.03043,-0.94361 -0.22334,-0.18817 -0.43858,-0.37423 -0.64596,-0.55812 -0.19939,-0.18174 -0.37456,-0.35713 -0.52606,-0.52607 -0.14138,-0.17475 -0.24575,-0.34395 -0.31316,-0.50744 -0.0674,-0.16351 -0.08,-0.32509 -0.0372,-0.48474 0.0471,-0.17561 0.11366,-0.31147 0.19947,-0.40823 0.0938,-0.0946 0.19717,-0.16129 0.31006,-0.19947 0.12302,-0.044 0.24748,-0.0619 0.37362,-0.0538 0.13627,0.002 0.27204,0.0215 0.40773,0.0579 0.32726,0.0877 0.58151,0.24143 0.76223,0.46096 0.1887,0.22164 0.25031,0.48614 0.185,0.79375 -0.0299,0.11173 -0.0331,0.23529 -0.009,0.36999 0.0318,0.13684 0.0907,0.26805 0.17673,0.39378 0.0861,0.12573 0.1967,0.24069 0.33125,0.3452 0.14252,0.10663 0.30918,0.18534 0.50074,0.23667 0.22564,0.0519 0.44693,0.09 0.66301,0.11369 0.21822,0.0157 0.41887,0.001 0.60203,-0.0439 0.19329,-0.0509 0.35812,-0.13962 0.49454,-0.26561 0.14654,-0.13185 0.25159,-0.31711 0.31575,-0.55656 0.0385,-0.14369 0.0738,-0.32247 0.10542,-0.53641 0.0396,-0.2118 0.0455,-0.4413 0.0176,-0.68834 -0.0178,-0.25286 -0.0848,-0.51493 -0.20051,-0.78547 -0.10773,-0.26842 -0.28944,-0.53067 -0.5457,-0.78756 -0.24614,-0.2627 -0.58163,-0.51099 -1.00666,-0.74464 -0.41704,-0.23151 -0.94923,-0.43397 -1.59576,-0.60719 l -0.19121,-0.0512 c -0.72265,-0.17653 -1.38255,-0.28493 -1.97921,-0.32505 -0.14716,-0.009 -0.29019,-0.0131 -0.42943,-0.0103 z m 88.17756,0.12816 c -0.72843,0 -1.35499,0.0836 -1.87947,0.25115 -0.52447,0.16753 -0.96851,0.38573 -1.33273,0.65526 -0.36422,0.26951 -0.6594,0.57185 -0.88522,0.90692 -0.22581,0.33509 -0.40068,0.67056 -0.52451,1.00562 -0.12384,0.33507 -0.20745,0.65167 -0.25115,0.95033 -0.0437,0.29867 -0.0656,0.54288 -0.0656,0.73226 0,0.42977 0.15294,0.78307 0.45888,1.05987 0.30595,0.26953 0.70666,0.40413 1.202,0.40413 0.16025,0 0.33512,-0.0291 0.52452,-0.0873 0.19667,-0.0583 0.37511,-0.14954 0.53536,-0.27337 0.16754,-0.12382 0.3057,-0.28392 0.41496,-0.48059 0.10927,-0.20397 0.16434,-0.44818 0.16434,-0.73226 0,-0.17481 0.0143,-0.35682 0.0434,-0.5462 0.0364,-0.1967 0.10933,-0.37513 0.2186,-0.53539 0.11654,-0.16026 0.28428,-0.29128 0.50281,-0.39325 0.21853,-0.10927 0.50963,-0.16383 0.87384,-0.16383 0.13841,0 0.30614,0.0143 0.50282,0.0434 0.20396,0.0218 0.39666,0.0876 0.57877,0.1969 0.1894,0.10197 0.34643,0.26204 0.47026,0.48059 0.13112,0.21852 0.19637,0.51726 0.19637,0.89607 0,0.36419 -0.0836,0.67011 -0.25115,0.91776 -0.16754,0.2404 -0.3786,0.4591 -0.63355,0.65576 -0.25495,0.1967 -0.52821,0.38582 -0.81959,0.56793 -0.29137,0.18212 -0.56464,0.39727 -0.81959,0.64492 -0.25495,0.24041 -0.46601,0.52793 -0.63355,0.863 -0.16754,0.33509 -0.25167,0.75059 -0.25167,1.24592 0,0.1384 0.0219,0.29136 0.0656,0.45889 0.051,0.16754 0.1346,0.32406 0.25115,0.46974 0.12384,0.14568 0.28443,0.26959 0.48111,0.37156 0.20396,0.0947 0.46244,0.14211 0.77566,0.14211 0.51719,0 0.89598,-0.12745 1.13637,-0.38241 0.24766,-0.25495 0.37155,-0.5792 0.37155,-0.97255 0,-0.15298 0.0291,-0.28755 0.0873,-0.4041 0.0583,-0.12385 0.10926,-0.21511 0.15297,-0.27337 0.10198,-0.1384 0.25492,-0.28421 0.45888,-0.43719 0.21125,-0.16026 0.4371,-0.33155 0.67748,-0.51367 0.24767,-0.18211 0.49901,-0.38245 0.75396,-0.601 0.26224,-0.21852 0.49879,-0.45865 0.71003,-0.72088 0.21125,-0.26223 0.38255,-0.54978 0.51367,-0.86299 0.1384,-0.31324 0.20774,-0.6594 0.20774,-1.03818 0,-0.66288 -0.10553,-1.26751 -0.31678,-1.81385 -0.21125,-0.55361 -0.52479,-1.02721 -0.93999,-1.42057 -0.41521,-0.40066 -0.93573,-0.71012 -1.56218,-0.92864 -0.61917,-0.22582 -1.34056,-0.33848 -2.1637,-0.33848 z m 0,11.90988 c -0.58274,0 -1.03087,0.14171 -1.3441,0.42579 -0.31322,0.28411 -0.46974,0.73938 -0.46974,1.36583 0,0.61916 0.15652,1.078 0.46974,1.37666 0.31323,0.29136 0.76136,0.43717 1.3441,0.43717 0.56818,0 1.00918,-0.14581 1.32241,-0.43717 0.31322,-0.29866 0.46973,-0.7575 0.46973,-1.37666 0,-0.62645 -0.14937,-1.08172 -0.44803,-1.36583 -0.29137,-0.28408 -0.7395,-0.42579 -1.34411,-0.42579 z m -48.11902,26.94358 c -0.16938,-0.003 -0.32329,0.0182 -0.46199,0.0651 -0.2753,0.086 -0.50949,0.23786 -0.70228,0.4553 -0.19069,0.20955 -0.34746,0.46564 -0.47077,0.76893 -0.11547,0.30541 -0.21764,0.62288 -0.30593,0.9524 l -0.555,2.07118 -0.65888,-0.17621 c -0.20398,-0.0547 -0.41138,-0.0975 -0.62166,-0.12867 -0.20034,-0.0369 -0.39148,-0.0294 -0.57361,0.0227 -0.18214,0.0521 -0.34934,0.1584 -0.50178,0.31938 -0.1446,0.16306 -0.26204,0.41349 -0.35243,0.75083 -0.0862,0.32168 -0.10726,0.58904 -0.0636,0.80256 0.0515,0.21561 0.14273,0.39193 0.27441,0.52811 0.13168,0.13621 0.29183,0.24577 0.47955,0.3297 0.19768,0.0782 0.39805,0.14483 0.60203,0.19947 l 0.6594,0.17674 -1.04077,3.88347 c -0.12823,0.47858 -0.24317,0.93933 -0.3452,1.38288 -0.0921,0.4378 -0.15367,0.85455 -0.18396,1.25005 -0.0225,0.39761 10e-5,0.76927 0.0672,1.11519 0.077,0.34015 0.21545,0.65508 0.41548,0.94411 0.20999,0.28332 0.49555,0.53634 0.85628,0.75914 0.36858,0.22487 0.83153,0.41196 1.38855,0.56121 0.35304,0.0946 0.69966,0.14978 1.04024,0.16537 0.34058,0.0156 0.6522,-0.019 0.93535,-0.10285 0.28314,-0.0839 0.52594,-0.22063 0.72812,-0.41031 0.21002,-0.18757 0.35723,-0.43807 0.44132,-0.7519 0.082,-0.30596 0.11769,-0.56528 0.10748,-0.77824 -0.0102,-0.21297 -0.0671,-0.39238 -0.17105,-0.53795 -0.0961,-0.14346 -0.24113,-0.26218 -0.43459,-0.35605 -0.18353,-0.0996 -0.41624,-0.18735 -0.69867,-0.26303 -0.2589,-0.0694 -0.44625,-0.1698 -0.56224,-0.30181 -0.11389,-0.13983 -0.18637,-0.294 -0.21704,-0.46198 -0.0307,-0.16799 -0.0306,-0.34047 0,-0.51726 0.0405,-0.18257 0.0815,-0.35211 0.1235,-0.50904 l 1.10381,-4.11861 0.9648,0.2584 c 0.20398,0.0547 0.41138,0.0975 0.62167,0.12866 0.21239,0.0233 0.40956,0.009 0.59169,-0.0434 0.18998,-0.05 0.35719,-0.15632 0.50178,-0.31938 0.15244,-0.16094 0.27193,-0.40232 0.35812,-0.72398 0.0904,-0.33734 0.10993,-0.61378 0.0584,-0.82941 -0.0437,-0.21352 -0.13539,-0.38931 -0.27491,-0.52761 -0.13168,-0.13618 -0.29736,-0.23971 -0.49713,-0.31006 -0.19768,-0.0782 -0.39857,-0.14431 -0.60255,-0.19894 l -0.96531,-0.25893 0.555,-2.07118 c 0.0883,-0.32951 0.15513,-0.65648 0.19999,-0.98081 0.0527,-0.32224 0.049,-0.62182 -0.0114,-0.89866 -0.0504,-0.28257 -0.17355,-0.52993 -0.36897,-0.74207 -0.19332,-0.21998 -0.48623,-0.3822 -0.8785,-0.48731 -0.20006,-0.0536 -0.38459,-0.0819 -0.55397,-0.0852 z m -88.54395,0.77721 c -0.61795,0.008 -1.33848,0.12256 -2.16162,0.34311 -0.2445,0.0655 -0.53449,0.15619 -0.87023,0.27234 -0.3276,0.11398 -0.66572,0.27045 -1.01441,0.46871 -0.3487,0.19825 -0.679,0.44833 -0.99116,0.75033 -0.31433,0.29387 -0.57008,0.65937 -0.76739,1.09659 -0.19731,0.4372 -0.3179,0.94978 -0.36122,1.53789 -0.0352,0.58592 0.0509,1.26593 0.25838,2.04018 l 0.76688,2.8608 c 0.22493,0.83945 0.55332,1.51152 0.98547,2.01592 0.43215,0.50437 0.92868,0.87328 1.48931,1.10741 0.56879,0.23194 1.18063,0.34753 1.83555,0.34676 0.65492,-7.9e-4 1.32125,-0.0874 1.99988,-0.26045 0.51345,-0.13758 1.0516,-0.32983 1.61437,-0.57671 0.57093,-0.24908 1.08059,-0.54724 1.52911,-0.89453 0.44851,-0.3473 0.79328,-0.74134 1.03352,-1.18132 0.23807,-0.44812 0.28613,-0.93683 0.14418,-1.46658 -0.0677,-0.25265 -0.16703,-0.44432 -0.29817,-0.57515 -0.13332,-0.13899 -0.28558,-0.23389 -0.4563,-0.28422 -0.17072,-0.0504 -0.35843,-0.0653 -0.56276,-0.0455 -0.19618,0.0176 -0.3957,0.0534 -0.59945,0.108 -0.42379,0.11356 -0.7473,0.24419 -0.96996,0.39119 -0.2167,0.13668 -0.37882,0.28027 -0.4868,0.43151 -0.0998,0.14904 -0.17306,0.29993 -0.21962,0.45217 -0.0466,0.15222 -0.10756,0.29933 -0.18293,0.44183 -0.0672,0.14031 -0.17947,0.27559 -0.33694,0.40513 -0.15149,0.11922 -0.39023,0.2222 -0.71623,0.30956 -0.28525,0.0764 -0.54122,0.0839 -0.7674,0.0222 -0.22617,-0.0617 -0.4245,-0.16558 -0.59479,-0.31213 -0.16214,-0.14872 -0.29585,-0.3226 -0.40153,-0.52141 -0.10568,-0.19878 -0.18478,-0.39608 -0.23719,-0.59169 l -0.31419,-1.17356 4.86533,-1.30381 c 0.43195,-0.11573 0.75076,-0.26234 0.95653,-0.43977 0.20578,-0.17743 0.34069,-0.35779 0.40515,-0.54104 0.0704,-0.19357 0.091,-0.37793 0.0615,-0.55346 -0.0317,-0.18367 -0.0653,-0.34089 -0.10025,-0.47128 l -0.20309,-0.75758 c -0.0786,-0.29339 -0.17862,-0.60322 -0.30076,-0.92863 -0.12432,-0.33356 -0.28741,-0.64767 -0.48886,-0.94308 -0.20363,-0.30358 -0.46086,-0.57984 -0.77204,-0.82839 -0.31118,-0.24855 -0.69424,-0.43846 -1.14877,-0.56999 -0.45452,-0.13152 -0.99499,-0.19193 -1.62109,-0.18137 z m 201.07816,2.22311 c -0.43545,0 -0.79414,0.0812 -1.0759,0.24339 -0.27323,0.16224 -0.48657,0.37558 -0.64026,0.64026 -0.1537,0.26469 -0.26065,0.56799 -0.32042,0.90951 -0.0598,0.34155 -0.0894,0.69146 -0.0894,1.05008 v 3.12486 l 0.66609,4.14962 c 0,0.27323 0.0126,0.53813 0.0383,0.79428 0.0341,0.25614 0.10268,0.48651 0.20515,0.69143 0.10245,0.19638 0.24726,0.3587 0.43511,0.48678 0.19637,0.11954 0.45688,0.17931 0.78134,0.17931 0.32446,0 0.58058,-0.0598 0.76843,-0.17931 0.19638,-0.12808 0.3461,-0.2904 0.44855,-0.48678 0.10247,-0.20492 0.16611,-0.43529 0.19172,-0.69143 0.0341,-0.25615 0.0512,-0.52105 0.0512,-0.79428 l 0.64079,-4.09845 v -3.15071 c 0,-0.35862 -0.0302,-0.70853 -0.0899,-1.05008 -0.0512,-0.34152 -0.15378,-0.64482 -0.30747,-0.90951 -0.1537,-0.2732 -0.36703,-0.49096 -0.64027,-0.65317 -0.27323,-0.17076 -0.62754,-0.2558 -1.06299,-0.2558 z m -201.65849,0.56999 c 0.07,0.003 0.13475,0.01 0.19483,0.0222 0.24843,0.047 0.44912,0.15938 0.60151,0.33692 0.16054,0.17536 0.28944,0.41129 0.38654,0.70847 0.10306,0.28686 0.20587,0.62206 0.30851,1.00513 l -3.05615,0.81854 -0.22944,-0.85524 c -0.0371,-0.13854 -0.0674,-0.30094 -0.0909,-0.48678 -0.0236,-0.18587 -0.007,-0.36931 0.0491,-0.55036 0.0541,-0.1892 0.16082,-0.36214 0.31988,-0.51832 0.16721,-0.15835 0.41774,-0.28202 0.75189,-0.37155 0.29951,-0.0803 0.55426,-0.11663 0.76429,-0.10904 z m 201.65849,13.13408 c -0.68307,0 -1.20795,0.16621 -1.57509,0.49919 -0.36716,0.333 -0.55086,0.86717 -0.55086,1.60147 0,0.72575 0.1837,1.26325 0.55086,1.61332 0.36714,0.34155 0.89202,0.51263 1.57509,0.51263 0.66601,0 1.18264,-0.17108 1.54977,-0.51263 0.36716,-0.35007 0.55089,-0.88757 0.55089,-1.61332 0,-0.7343 -0.1755,-1.26847 -0.52557,-1.60147 -0.34152,-0.33298 -0.8664,-0.49919 -1.57509,-0.49919 z"
         id="path5510" />
      <path
         inkscape:connector-curvature="0"
         style="opacity:1;fill:#9119d7;fill-opacity:1;fill-rule:nonzero;stroke:none;stroke-width:0.26458332;stroke-linecap:round;stroke-linejoin:round;stroke-miterlimit:4;stroke-dasharray:none;stroke-dashoffset:10;stroke-opacity:1"
         d="m 605.99799,123.5644 a 14.883637,13.948295 0 0 1 6.09678,11.23859 14.883637,13.948295 0 0 1 -10.60245,13.34648 13.708362,12.846879 0 0 0 12.73927,-12.81525 13.708362,12.846879 0 0 0 -8.2336,-11.76982 z m 194.08531,8.05274 c 1.65853,1.46187 2.14875,4.0254 0.86609,5.91127 l -9.90585,14.56552 c -0.77372,1.13742 -1.87837,1.9005 -3.08663,2.19832 2.10978,0.88315 4.44929,0.0785 5.7738,-1.86862 l 9.42475,-13.85705 c 1.41579,-2.08156 0.56443,-5.03629 -1.66346,-6.2084 z m -137.89184,1.13326 15.60473,4.254 c 2.42848,0.66323 4.06858,3.19685 3.21324,5.56453 l -6.29471,17.42321 c -0.66852,1.85055 -2.26521,3.33497 -4.04626,3.45199 l 0.65216,0.26149 c 2.33745,0.93469 4.70917,-0.84558 5.56451,-3.21323 l 6.29419,-17.42168 c 0.85535,-2.36767 -0.78424,-4.90286 -3.21272,-5.56609 l -16.91835,-4.61055 c -0.28924,-0.0788 -0.57512,-0.12464 -0.85679,-0.14367 z m 82.26991,12.07937 c 1.40058,1.90029 2.16183,3.77264 1.74666,5.48545 l -8.45736,16.74524 0.96531,-0.0134 c 0.99379,-0.0146 1.86487,-0.66638 2.15853,-1.61592 l 8.07186,-15.50088 c 0.29295,-0.94922 -0.0576,-1.97898 -0.8692,-2.55177 z m 89.85137,25.1225 a 16.80539,15.749278 0 0 1 6.8838,12.69019 16.80539,15.749278 0 0 1 -11.97136,15.06987 15.478365,14.505649 0 0 0 14.38415,-14.47043 15.478365,14.505649 0 0 0 -9.29659,-13.28963 z m -249.76202,13.72061 c -0.34469,-0.001 -0.67577,0.0324 -0.99426,0.0951 l 18.59629,0.0811 c 2.89439,0.0139 5.46984,2.33944 5.22448,5.22346 l -1.80609,21.22349 c -0.19179,2.25415 -1.52327,4.37799 -3.46646,5.03794 l 0.80202,0.0956 c 2.87408,0.34247 4.9781,-2.33995 5.22346,-5.22399 l 1.80609,-21.22143 c 0.24536,-2.88402 -2.33009,-5.21161 -5.22449,-5.22553 z m 172.53572,11.58793 15.60525,4.25399 c 2.42848,0.66321 4.06806,3.19686 3.21272,5.56451 l -6.2947,17.42323 c -0.66852,1.85055 -2.26522,3.33497 -4.04627,3.452 l 0.65216,0.26148 c 2.33745,0.9347 4.70917,-0.84558 5.56451,-3.21325 l 6.2942,-17.42168 c 0.85534,-2.36768 -0.78425,-4.90283 -3.21273,-5.56607 l -16.91835,-4.61057 c -0.28924,-0.0788 -0.57512,-0.12462 -0.85679,-0.14364 z m -74.90292,4.00854 a 13.537508,12.686762 15 0 1 2.71094,11.30938 13.537508,12.686762 15 0 1 -12.45712,9.22993 12.468529,11.684961 15 0 0 14.20947,-8.26047 12.468529,11.684961 15 0 0 -4.46329,-12.27884 z m -46.53566,41.62846 c 1.19911,1.62692 1.85044,3.22995 1.495,4.69635 l -7.24091,14.33658 0.82631,-0.0113 c 0.85084,-0.0125 1.59705,-0.57095 1.84847,-1.3839 l 6.91069,-13.27052 c 0.25081,-0.81267 -0.0492,-1.69498 -0.74414,-2.18538 z m 202.90028,4.47 c 1.65851,1.46187 2.14876,4.0254 0.86609,5.91127 l -9.90584,14.56552 c -0.77372,1.13742 -1.87788,1.9005 -3.08613,2.19832 2.10979,0.88315 4.44929,0.0785 5.77382,-1.86862 l 9.42422,-13.85705 c 1.41578,-2.08156 0.56443,-5.03627 -1.66346,-6.2084 z m -112.5766,1.65674 c 1.09629,1.6497 0.92619,3.98187 -0.62115,5.31648 l -11.95069,10.30791 c -0.93333,0.80491 -2.06597,1.20946 -3.18068,1.187 1.62103,1.25351 3.83233,1.10006 5.43016,-0.27803 l 11.36933,-9.80662 c 1.70792,-1.47312 1.65624,-4.22786 0,-5.75884 z"
         id="path5512" />
    </g>
  </g>
</svg>
