<?xml version="1.0" encoding="UTF-8" standalone="no"?>
<!-- Created with Inkscape (http://www.inkscape.org/) -->

<svg
   xmlns:dc="http://purl.org/dc/elements/1.1/"
   xmlns:cc="http://creativecommons.org/ns#"
   xmlns:rdf="http://www.w3.org/1999/02/22-rdf-syntax-ns#"
   xmlns:svg="http://www.w3.org/2000/svg"
   xmlns="http://www.w3.org/2000/svg"
   xmlns:sodipodi="http://sodipodi.sourceforge.net/DTD/sodipodi-0.dtd"
   xmlns:inkscape="http://www.inkscape.org/namespaces/inkscape"
   width="1200"
   height="700"
   viewBox="0 0 317.49999 185.20833"
   version="1.1"
   id="svg1117"
   inkscape:version="0.92.4 (5da689c313, 2019-01-14)"
   sodipodi:docname="game_cover_4.svg">
  <defs
     id="defs1111" />
  <sodipodi:namedview
     id="base"
     pagecolor="#ffffff"
     bordercolor="#666666"
     borderopacity="1.0"
     inkscape:pageopacity="0.0"
     inkscape:pageshadow="2"
     inkscape:zoom="0.16"
     inkscape:cx="1638.1996"
     inkscape:cy="-1419.077"
     inkscape:document-units="px"
     inkscape:current-layer="layer1"
     showgrid="false"
     inkscape:window-width="1920"
     inkscape:window-height="1017"
     inkscape:window-x="-8"
     inkscape:window-y="-8"
     inkscape:window-maximized="1"
     units="px"
     inkscape:snap-bbox="true"
     inkscape:bbox-nodes="true"
     inkscape:snap-global="false">
    <inkscape:grid
       type="xygrid"
       id="grid840" />
  </sodipodi:namedview>
  <metadata
     id="metadata1114">
    <rdf:RDF>
      <cc:Work
         rdf:about="">
        <dc:format>image/svg+xml</dc:format>
        <dc:type
           rdf:resource="http://purl.org/dc/dcmitype/StillImage" />
        <dc:title />
      </cc:Work>
    </rdf:RDF>
  </metadata>
  <g
     inkscape:label="Layer 1"
     inkscape:groupmode="layer"
     id="layer1"
     transform="translate(0,-111.79165)">
    <g
       transform="translate(0,-238.28709)"
       id="g1108">
      <rect
         y="350.07874"
         x="-3.9285678e-06"
         height="185.20833"
         width="317.5"
         id="rect903"
         style="opacity:1;fill:#ffa426;fill-opacity:1;fill-rule:nonzero;stroke:none;stroke-width:0.26458332;stroke-linecap:round;stroke-linejoin:round;stroke-miterlimit:4;stroke-dasharray:none;stroke-dashoffset:0;stroke-opacity:0" />
      <path
         inkscape:connector-curvature="0"
         id="path905"
         transform="matrix(0.26458333,0,0,0.26458333,0,111.79165)"
         d="m 191.51172,991.14453 a 51.811132,48.555134 0 0 0 -51.8125,48.55467 51.811132,48.555134 0 0 0 51.8125,48.5547 51.811132,48.555134 0 0 0 51.81055,-48.5547 51.811132,48.555134 0 0 0 -51.81055,-48.55467 z m 694.55078,5.25977 c -6.07163,-0.14206 -11.92966,2.81272 -15.26562,8.4395 l -31.80469,53.6445 c -4.85246,8.1844 -2.08489,18.9403 6.28711,23.4609 l 53.00781,28.625 c 8.37192,4.5208 18.10943,1.5801 23.46094,-6.2871 l 35.62109,-52.373 c 5.35102,-7.8674 2.13326,-19.031 -6.28711,-23.461 l -56.82422,-29.89646 c -2.63133,-1.38439 -5.43548,-2.08777 -8.19531,-2.15234 z m -463.28906,33.5 c -7.10686,0.3404 -13.1898,5.5028 -15.97852,12.7129 l -22.51758,58.2187 c -2.46251,9.1905 3.31023,17.502 12.14454,21.0352 l 62.66992,25.0605 c 8.83445,3.5328 17.80237,-3.1958 21.03515,-12.1445 l 23.78907,-65.8496 c 3.23278,-8.9487 -2.96603,-18.5285 -12.14454,-21.0352 l -63.9414,-17.4277 c -1.72121,-0.4691 -3.4166,-0.6489 -5.05664,-0.5703 z m 261.81054,11.4023 c -0.9683,-0.05 -1.95003,0.063 -2.90234,0.3438 -0.98967,0.2921 -1.91909,0.7557 -2.74609,1.373 l -45.36328,46.9844 c -3.00768,2.2525 -4.2222,6.1856 -3.00977,9.7422 l 25.25391,52.5293 c 1.21099,3.5594 4.57655,5.9328 8.33593,5.8789 l 49.66211,1.4023 c 3.75606,-0.055 7.0503,-2.5225 8.16016,-6.1113 l 30.50781,-58.584 c 1.10721,-3.5876 -0.21961,-7.4816 -3.28711,-9.6464 l -60.06445,-42.3418 c -1.35331,-0.9525 -2.93304,-1.4871 -4.54688,-1.5704 z m 367.17772,124.6387 a 58.500908,54.8245 0 0 0 -58.50193,54.8242 58.500908,54.8245 0 0 0 58.50193,54.8243 58.500908,54.8245 0 0 0 58.5,-54.8243 58.500908,54.8245 0 0 0 -58.5,-54.8242 z m -920.61717,56.4473 c -10.93947,-0.047 -18.57505,8.8714 -19.74609,19.748 l -7.6836,71.3555 c 5e-5,10.9395 8.8854,18.4511 19.74805,19.7461 l 77.05859,9.1836 c 10.86264,1.2944 18.81877,-8.8458 19.7461,-19.7461 l 6.82422,-80.2129 c 0.92733,-10.9003 -8.80666,-19.6936 -19.7461,-19.7461 z m 650.28711,43.7734 c -7.10686,0.3404 -13.1898,5.5028 -15.97852,12.7129 l -22.51757,58.2168 c -2.46252,9.1904 3.31022,17.502 12.14453,21.0352 l 62.66992,25.0605 c 8.83446,3.5327 17.80238,-3.1959 21.03516,-12.1445 l 23.78906,-65.8496 c 3.23278,-8.9487 -2.96603,-18.5285 -12.14453,-21.0352 l -63.94141,-17.4277 c -1.7212,-0.4692 -3.41659,-0.6469 -5.05664,-0.5684 z m -311.09766,5.0235 a 47.125153,44.163634 15 0 0 -44.35546,32.1699 47.125153,44.163634 15 0 0 34.08789,54.8554 47.125153,44.163634 15 0 0 56.95117,-30.4609 47.125153,44.163634 15 0 0 -34.08985,-54.8555 47.125153,44.163634 15 0 0 -12.59375,-1.7089 z m -189.68554,138.1406 c -0.82902,-0.043 -1.66906,0.054 -2.48438,0.2949 -0.84733,0.2502 -1.64351,0.6473 -2.35156,1.1758 l -38.83789,40.2246 c -2.57502,1.9284 -3.61614,5.2968 -2.57813,8.3418 l 21.62305,44.9726 c 1.03679,3.0474 3.91811,5.0794 7.13672,5.0332 l 42.51758,1.2012 c 3.21577,-0.047 6.0361,-2.1598 6.98633,-5.2324 l 26.11914,-50.1582 c 0.94794,-3.0716 -0.18807,-6.4043 -2.81446,-8.2578 l -51.42382,-36.252 c -1.15864,-0.8154 -2.51089,-1.2725 -3.89258,-1.3437 z m 335.77344,12.7129 c -3.89562,-0.021 -7.77179,1.4255 -10.82032,4.4043 l -39.96289,39.0507 c -6.09721,5.9578 -6.19695,15.9063 0,21.7598 l 39.23633,37.0645 c 6.1968,5.8537 15.30621,5.5674 21.76172,0 l 42.9707,-37.0645 c 6.45513,-5.5677 6.25984,-15.9734 0,-21.7598 l -42.24414,-39.0507 c -3.12986,-2.8932 -7.04579,-4.3829 -10.9414,-4.4043 z m 415.01952,4.2851 c -6.0716,-0.142 -11.9297,2.8127 -15.2656,8.4395 l -31.80471,53.6445 c -4.85246,8.1845 -2.08488,18.9404 6.28711,23.4609 l 53.0078,28.625 c 8.3719,4.5209 18.1094,1.5801 23.461,-6.2871 l 35.621,-52.373 c 5.3511,-7.8674 2.1353,-19.031 -6.2851,-23.4609 l -56.8262,-29.8965 c -2.6313,-1.3844 -5.4355,-2.0878 -8.1953,-2.1524 z"
         style="opacity:1;fill:#fb9915;fill-opacity:1;fill-rule:nonzero;stroke:none;stroke-width:1;stroke-linecap:round;stroke-linejoin:round;stroke-miterlimit:4;stroke-dasharray:none;stroke-dashoffset:10;stroke-opacity:1" />
      <path
         inkscape:connector-curvature="0"
         id="path909"
         transform="matrix(0.26458333,0,0,0.26458333,0,111.79165)"
         d="m 191.42969,1010.3789 c -2.75314,0 -5.12126,0.316 -7.10352,0.9492 -1.98226,0.6332 -3.66249,1.4599 -5.03906,2.4785 -1.37657,1.0187 -2.49223,2.1613 -3.3457,3.4278 -0.85348,1.2664 -1.51244,2.5324 -1.98047,3.7988 -0.46804,1.2664 -0.78599,2.465 -0.95117,3.5938 -0.16519,1.1287 -0.24805,2.0498 -0.24805,2.7656 0,1.6243 0.57806,2.9596 1.73437,4.0058 1.15632,1.0187 2.67084,1.5293 4.54297,1.5293 0.60569,0 1.26661,-0.1117 1.98242,-0.332 0.74335,-0.2202 1.41775,-0.5632 2.02344,-1.0312 0.63322,-0.4681 1.15734,-1.0751 1.57031,-1.8184 0.41297,-0.7709 0.61915,-1.6919 0.61915,-2.7656 0,-0.6608 0.0539,-1.3487 0.16406,-2.0645 0.13765,-0.7433 0.4132,-1.4177 0.82617,-2.0234 0.4405,-0.6057 1.07445,-1.1029 1.90039,-1.4883 0.82594,-0.413 1.92812,-0.6191 3.30469,-0.6191 0.52309,0 1.15509,0.056 1.89843,0.166 0.77088,0.083 1.50117,0.3292 2.18946,0.7422 0.71581,0.3854 1.30736,0.9924 1.77539,1.8183 0.49556,0.826 0.74414,1.9532 0.74414,3.3848 0,1.3766 -0.31795,2.5346 -0.95117,3.4707 -0.63322,0.9085 -1.43094,1.7332 -2.39453,2.4766 -0.9636,0.7433 -1.99641,1.4601 -3.09766,2.1484 -1.10125,0.6883 -2.13406,1.4995 -3.09766,2.4355 -0.96359,0.9086 -1.76131,1.9973 -2.39453,3.2637 -0.63322,1.2664 -0.94922,2.8349 -0.94922,4.707 0,0.5231 0.0809,1.1012 0.2461,1.7344 0.19272,0.6332 0.51067,1.2248 0.95117,1.7754 0.46803,0.5506 1.07306,1.0189 1.81641,1.4043 0.77087,0.3579 1.74779,0.5371 2.93164,0.5371 1.95472,0 3.38638,-0.4817 4.29492,-1.4453 0.93606,-0.9636 1.40429,-2.1891 1.4043,-3.6758 -10e-6,-0.5781 0.10982,-1.0868 0.33007,-1.5273 0.22025,-0.4681 0.41294,-0.813 0.57813,-1.0332 0.38544,-0.5231 0.9635,-1.0742 1.73437,-1.6524 0.79841,-0.6057 1.65202,-1.2511 2.56055,-1.9394 0.93607,-0.6883 1.88601,-1.4456 2.84961,-2.2715 0.99113,-0.826 1.88714,-1.7354 2.68555,-2.7266 0.79841,-0.9911 1.44388,-2.0778 1.93945,-3.2617 0.5231,-1.1838 0.78516,-2.4922 0.78516,-3.9238 0,-2.5054 -0.39886,-4.7906 -1.19727,-6.8555 -0.79841,-2.0924 -1.98149,-3.8805 -3.55078,-5.3672 -1.56929,-1.5142 -3.53855,-2.6858 -5.90625,-3.5117 -2.34017,-0.8535 -5.06474,-1.2793 -8.17578,-1.2793 z m 706.91601,10.2871 c -1.64582,0 -3.00146,0.3068 -4.0664,0.9199 -1.03268,0.6132 -1.83905,1.4196 -2.41992,2.42 -0.58088,1.0004 -0.98504,2.1466 -1.21094,3.4375 -0.2259,1.2908 -0.33789,2.6133 -0.33789,3.9687 v 11.8125 l 2.51562,15.6836 c 0,1.0327 0.0497,2.0319 0.14649,3 0.12908,0.9681 0.38618,1.8407 0.77343,2.6152 0.38726,0.7423 0.93652,1.3539 1.64649,1.8379 0.74223,0.4518 1.72682,0.6778 2.95312,0.6778 1.22631,0 2.19434,-0.226 2.9043,-0.6778 0.74224,-0.484 1.30611,-1.0956 1.69336,-1.8379 0.38725,-0.7745 0.62975,-1.6471 0.72656,-2.6152 0.12909,-0.9681 0.19336,-1.9673 0.19336,-3 l 2.41992,-15.4902 v -11.9082 c 0,-1.3554 -0.11199,-2.6799 -0.33789,-3.9707 -0.19362,-1.2909 -0.58123,-2.4352 -1.16211,-3.4356 -0.58088,-1.0327 -1.38724,-1.8556 -2.41992,-2.4687 -1.03267,-0.6455 -2.37175,-0.9688 -4.01758,-0.9688 z m -706.91601,34.7266 c -2.20251,0 -3.89623,0.5376 -5.08008,1.6113 -1.18385,1.0737 -1.77539,2.7944 -1.77539,5.1621 0,2.3402 0.59154,4.0744 1.77539,5.2031 1.18385,1.1013 2.87757,1.6504 5.08008,1.6504 2.14744,0 3.81224,-0.5491 4.99609,-1.6504 1.18385,-1.1287 1.77539,-2.8629 1.77539,-5.2031 0,-2.3677 -0.56457,-4.0884 -1.69336,-5.1621 -1.10125,-1.0737 -2.79302,-1.6113 -5.07812,-1.6113 z m 279.27343,7.914 a 7.5645201,7.5645201 0 0 0 -5.20312,2.2559 l -30.93359,30.6855 -11.56836,-11.4785 a 7.5646743,7.5646743 0 1 0 -10.65235,10.7422 l 16.88282,16.7735 a 7.5645201,7.5645201 0 0 0 10.65429,0 l 36.26953,-35.9805 a 7.5645201,7.5645201 0 0 0 -5.44922,-12.9981 z m 218.14649,3.8067 c -1.64583,0 -3.00146,0.3068 -4.06641,0.9199 -1.03267,0.6132 -1.83904,1.4195 -2.41992,2.4199 -0.58088,1.0004 -0.98504,2.1467 -1.21094,3.4375 -0.22589,1.2909 -0.33984,2.6134 -0.33984,3.9688 v 11.8105 l 2.51758,15.6836 c 0,1.0327 0.0497,2.0338 0.14648,3.002 0.12909,0.9681 0.38619,1.8387 0.77344,2.6133 0.38725,0.7422 0.93652,1.3557 1.64648,1.8398 0.74224,0.4518 1.72683,0.6777 2.95313,0.6777 1.2263,0 2.19433,-0.2259 2.9043,-0.6777 0.74223,-0.4841 1.3061,-1.0976 1.69336,-1.8398 0.38725,-0.7746 0.62974,-1.6452 0.72656,-2.6133 0.12908,-0.9682 0.19336,-1.9693 0.19336,-3.002 l 2.41992,-15.4902 v -11.9082 c 0,-1.3554 -0.11199,-2.6779 -0.33789,-3.9688 -0.19363,-1.2908 -0.58123,-2.4371 -1.16211,-3.4375 -0.58088,-1.0326 -1.38725,-1.8536 -2.41992,-2.4668 -1.03268,-0.6454 -2.37175,-0.9687 -4.01758,-0.9687 z m 209.49609,5.3476 c -2.58169,0 -4.56742,0.6301 -5.95508,1.8887 -1.38765,1.2586 -2.08007,3.2755 -2.08007,6.0508 0,2.743 0.69242,4.7765 2.08007,6.0996 1.38766,1.2908 3.37339,1.9355 5.95508,1.9355 2.51715,0 4.46977,-0.6447 5.85742,-1.9355 1.38766,-1.3231 2.08008,-3.3566 2.08008,-6.0996 0,-2.7753 -0.66126,-4.7922 -1.98437,-6.0508 -1.29085,-1.2586 -3.27462,-1.8887 -5.95313,-1.8887 z m -209.49609,46.4473 c -2.58169,0 -4.56742,0.6301 -5.95508,1.8887 -1.38766,1.2585 -2.08203,3.2754 -2.08203,6.0508 0,2.743 0.69437,4.7745 2.08203,6.0976 1.38766,1.2909 3.37339,1.9375 5.95508,1.9375 2.51715,0 4.46781,-0.6466 5.85547,-1.9375 1.38766,-1.3231 2.08203,-3.3546 2.08203,-6.0976 0,-2.7754 -0.66126,-4.7923 -1.98438,-6.0508 -1.29084,-1.2586 -3.27462,-1.8887 -5.95312,-1.8887 z m 388.51169,72.5137 a 7.5645201,7.5645201 0 0 0 -5.2051,2.2558 l -30.9316,30.6875 -11.5703,-11.4804 a 7.5646743,7.5646743 0 1 0 -10.6523,10.7422 l 16.8847,16.7734 a 7.5645201,7.5645201 0 0 0 10.6524,0 l 36.2714,-35.9805 a 7.5645201,7.5645201 0 0 0 -5.4492,-12.998 z m -910.77927,47.6523 c -0.38287,0 -0.77487,0.01 -1.17578,0.035 -1.60366,0.1034 -3.26226,0.3849 -4.97461,0.8437 -4.03354,1.0808 -7.05696,2.5041 -9.07226,4.2676 -2.02551,1.7255 -3.35882,3.755 -3.99805,6.0879 -0.64943,2.2948 -0.74892,4.8897 -0.29883,7.7871 0.45009,2.8974 1.12423,6.0205 2.02148,9.3691 l -3.19726,0.8575 c -1.06546,0.2855 -2.07639,0.6168 -3.03516,0.9961 -0.92072,0.369 -1.70115,0.8843 -2.33984,1.5449 -0.60064,0.6503 -1.0014,1.5123 -1.20313,2.5859 -0.20172,1.0737 -0.0775,2.4468 0.3711,4.1211 0.41804,1.5602 0.9764,2.7365 1.67773,3.5274 0.69114,0.7528 1.46477,1.2791 2.32031,1.58 0.8834,0.2527 1.82237,0.3273 2.81446,0.2246 1.01994,-0.1509 2.06149,-0.3688 3.12695,-0.6543 l 3.19727,-0.8554 8.10547,30.2519 c 0.44862,1.6743 0.95709,3.2697 1.52734,4.7891 0.56005,1.4813 1.28849,2.7556 2.18555,3.8203 0.88686,1.0267 1.9801,1.7524 3.27734,2.1797 1.33529,0.4171 2.9734,0.3657 4.91406,-0.1543 2.01677,-0.5404 3.51801,-1.3301 4.50391,-2.3691 1.02395,-1.0493 1.68185,-2.2452 1.97461,-3.5879 0.32061,-1.391 0.35329,-2.8668 0.0977,-4.4297 -0.22777,-1.6111 -0.56699,-3.2554 -1.01562,-4.9297 l -8.10547,-30.25 3.42578,-0.918 c 0.95131,-0.2549 1.90646,-0.5719 2.86524,-0.9511 0.94857,-0.4174 1.74216,-0.9567 2.38085,-1.6172 0.66655,-0.7088 1.12851,-1.5665 1.38868,-2.5743 0.24997,-1.0458 0.16608,-2.35 -0.25196,-3.9101 -0.44862,-1.6743 -1.04729,-2.9195 -1.79687,-3.7383 -0.74958,-0.8188 -1.58441,-1.3493 -2.50586,-1.5918 -0.8834,-0.2527 -1.83552,-0.3052 -2.85547,-0.1543 -1.01995,0.151 -2.00572,0.3545 -2.95703,0.6094 l -3.42383,0.918 -0.64258,-2.3965 c -0.18353,-0.685 -0.34866,-1.3752 -0.49414,-2.0703 -0.14547,-0.6952 -0.21802,-1.3494 -0.21875,-1.961 0.0373,-0.6217 0.14181,-1.1389 0.31641,-1.5527 0.21265,-0.4241 0.58641,-0.7088 1.11914,-0.8516 0.64689,-0.1733 1.25231,-0.1924 1.81836,-0.059 0.56605,0.1338 1.13625,0.1237 1.70703,-0.029 0.68494,-0.1835 1.39489,-0.495 2.13281,-0.9375 0.77598,-0.4526 1.43089,-1.0562 1.96289,-1.8105 0.532,-0.7543 0.90332,-1.65 1.11524,-2.6856 0.24997,-1.0458 0.19127,-2.2531 -0.17578,-3.623 -0.39765,-1.484 -1.07688,-2.6483 -2.03711,-3.4922 -0.93238,-0.8921 -2.05424,-1.5086 -3.36914,-1.8496 -0.98618,-0.2558 -2.05453,-0.3868 -3.20313,-0.3926 z m 300.41406,52.8457 c -1.5787,0.032 -3.02329,0.2731 -4.33203,0.7227 -1.73689,0.5693 -3.21104,1.5488 -4.42383,2.9375 -1.17453,1.3666 -2.07652,3.227 -2.70703,5.5801 -0.42842,1.5989 -0.46568,3.1232 -0.11132,4.5761 0.36243,1.4228 0.9689,2.7816 1.81835,4.0762 0.84946,1.2946 1.84313,2.5326 2.98243,3.7109 1.16947,1.1864 2.33644,2.3224 3.5,3.4102 0.92437,0.8944 1.8176,1.78 2.68164,2.6582 0.90229,0.8561 1.67553,1.7107 2.32031,2.5625 0.64478,0.8518 1.10807,1.72 1.38867,2.6035 0.31885,0.8615 0.36501,1.7139 0.13867,2.5586 -0.26675,0.9955 -0.8612,1.7092 -1.78515,2.1406 -0.8857,0.4094 -1.91721,0.4559 -3.09375,0.1407 -0.57319,-0.1536 -1.15305,-0.3405 -1.74024,-0.5625 -0.5791,-0.2522 -1.09842,-0.5518 -1.55469,-0.9004 -0.41801,-0.3707 -0.74367,-0.7815 -0.97851,-1.2325 -0.20468,-0.4428 -0.24088,-0.9705 -0.10938,-1.582 0.42468,-1.8262 0.26275,-3.2764 -0.48437,-4.3496 -0.74712,-1.0732 -1.87442,-1.8126 -3.38281,-2.2168 -2.08159,-0.5578 -3.74796,-0.5503 -5,0.02 -1.22188,0.578 -2.07554,1.772 -2.56055,3.5821 -0.20209,0.7542 -0.33499,1.607 -0.39648,2.5605 -0.0534,0.9234 0.0263,1.8995 0.23632,2.9258 0.21002,1.0263 0.59432,2.0662 1.15235,3.1211 0.59628,1.0328 1.42337,2.0459 2.48242,3.041 1.06713,0.965 2.407,1.8736 4.02148,2.7266 1.61449,0.8529 3.58333,1.5924 5.90625,2.2148 1.17655,0.3153 2.45419,0.5597 3.83008,0.7344 1.36781,0.2048 2.73724,0.2812 4.10938,0.2285 1.4023,-0.045 2.76563,-0.245 4.08984,-0.6016 1.35438,-0.3484 2.60252,-0.9049 3.74414,-1.666 1.14971,-0.7913 2.16609,-1.8102 3.05078,-3.0605 0.91486,-1.2422 1.6146,-2.77 2.09961,-4.5801 0.53351,-1.9911 0.58668,-3.8181 0.16016,-5.4844 -0.38828,-1.6884 -1.06524,-3.2611 -2.03321,-4.7168 -0.96796,-1.4557 -2.11328,-2.7966 -3.43359,-4.0234 -1.31222,-1.257 -2.61031,-2.4463 -3.89453,-3.5664 -0.84412,-0.7112 -1.65762,-1.4144 -2.44141,-2.1094 -0.75361,-0.6869 -1.41567,-1.3498 -1.98828,-1.9883 -0.53436,-0.6605 -0.92883,-1.3 -1.18359,-1.9179 -0.25476,-0.618 -0.3023,-1.2287 -0.14063,-1.8321 0.17784,-0.6637 0.42957,-1.1772 0.75391,-1.5429 0.35451,-0.3577 0.74519,-0.6096 1.17188,-0.7539 0.46493,-0.1665 0.93534,-0.2339 1.4121,-0.2032 0.51502,0.01 1.02817,0.081 1.54102,0.2188 1.23688,0.3314 2.19783,0.9125 2.88086,1.7422 0.7132,0.8377 0.94605,1.8374 0.69922,3 -0.11317,0.4223 -0.12508,0.8893 -0.0352,1.3984 0.12009,0.5172 0.34262,1.0131 0.66797,1.4883 0.32535,0.4752 0.74343,0.9097 1.25195,1.3047 0.53869,0.403 1.16855,0.7005 1.89258,0.8945 0.85279,0.1962 1.68916,0.3402 2.50586,0.4297 0.82478,0.059 1.58312,0 2.27539,-0.166 0.73053,-0.1923 1.35354,-0.5277 1.86914,-1.0039 0.55385,-0.4983 0.95086,-1.1985 1.19336,-2.1035 0.1455,-0.5431 0.27877,-1.2188 0.39844,-2.0274 0.14983,-0.8005 0.17192,-1.6679 0.0664,-2.6016 -0.0673,-0.9557 -0.32046,-1.9462 -0.75782,-2.9687 -0.40719,-1.0145 -1.09395,-2.0057 -2.0625,-2.9766 -0.93029,-0.9929 -2.19828,-1.9313 -3.80468,-2.8144 -1.57624,-0.875 -3.58766,-1.6402 -6.03125,-2.2949 l -0.72266,-0.1934 c -2.73128,-0.6672 -5.22538,-1.0769 -7.48047,-1.2285 -0.55623,-0.036 -1.09681,-0.05 -1.62305,-0.039 z m 333.26953,0.4844 c -2.75313,0 -5.12125,0.316 -7.10351,0.9492 -1.98226,0.6332 -3.66054,1.4579 -5.03711,2.4766 -1.37657,1.0186 -2.49223,2.1613 -3.3457,3.4277 -0.85348,1.2665 -1.51439,2.5344 -1.98242,3.8008 -0.46804,1.2664 -0.78404,2.463 -0.94922,3.5918 -0.16519,1.1288 -0.24805,2.0518 -0.24805,2.7676 0,1.6243 0.57806,2.9596 1.73437,4.0058 1.15632,1.0187 2.67084,1.5274 4.54297,1.5274 0.60569,0 1.26661,-0.1099 1.98243,-0.3301 0.74334,-0.2203 1.41774,-0.5652 2.02343,-1.0332 0.63322,-0.468 1.15539,-1.0731 1.56836,-1.8164 0.41297,-0.7709 0.6211,-1.6939 0.6211,-2.7676 0,-0.6607 0.0539,-1.3486 0.16406,-2.0644 0.13765,-0.7434 0.4132,-1.4178 0.82617,-2.0235 0.4405,-0.6057 1.07445,-1.1009 1.90039,-1.4863 0.82594,-0.413 1.92617,-0.6192 3.30273,-0.6192 0.5231,0 1.15705,0.054 1.9004,0.1641 0.77087,0.083 1.49921,0.3312 2.1875,0.7442 0.71581,0.3854 1.30931,0.9904 1.77734,1.8164 0.49556,0.8259 0.74219,1.955 0.74219,3.3867 0,1.3765 -0.316,2.5327 -0.94922,3.4687 -0.63322,0.9086 -1.43094,1.7352 -2.39453,2.4785 -0.9636,0.7434 -1.9964,1.4582 -3.09766,2.1465 -1.10125,0.6883 -2.13406,1.5015 -3.09766,2.4375 -0.96359,0.9086 -1.76131,1.9953 -2.39453,3.2617 -0.63322,1.2665 -0.95117,2.8369 -0.95117,4.709 0,0.5231 0.0829,1.1012 0.24805,1.7344 0.19272,0.6332 0.50872,1.2248 0.94922,1.7754 0.46803,0.5506 1.07501,1.0189 1.81836,1.4043 0.77087,0.3579 1.74779,0.5371 2.93164,0.5371 1.95472,0 3.38638,-0.4817 4.29492,-1.4453 0.93606,-0.9636 1.4043,-2.1891 1.4043,-3.6758 0,-0.5782 0.10982,-1.0868 0.33007,-1.5273 0.22025,-0.4681 0.41294,-0.813 0.57813,-1.0332 0.38544,-0.5231 0.9635,-1.0742 1.73437,-1.6524 0.79841,-0.6057 1.65202,-1.2531 2.56055,-1.9414 0.93607,-0.6883 1.88601,-1.4455 2.84961,-2.2715 0.99113,-0.8259 1.88518,-1.7335 2.68359,-2.7246 0.79841,-0.9911 1.44585,-2.0779 1.94141,-3.2617 0.5231,-1.1839 0.78516,-2.4922 0.78516,-3.9238 0,-2.5054 -0.39886,-4.7906 -1.19727,-6.8555 -0.79841,-2.0924 -1.98345,-3.8824 -3.55273,-5.3691 -1.56929,-1.5143 -3.5366,-2.6839 -5.9043,-3.5098 -2.34017,-0.8535 -5.06669,-1.2793 -8.17774,-1.2793 z m 0,45.0137 c -2.2025,0 -3.89622,0.5356 -5.08007,1.6093 -1.18385,1.0738 -1.77539,2.7945 -1.77539,5.1622 0,2.3401 0.59154,4.0743 1.77539,5.2031 1.18385,1.1012 2.87757,1.6523 5.08007,1.6523 2.14745,0 3.8142,-0.5511 4.99805,-1.6523 1.18385,-1.1288 1.77539,-2.863 1.77539,-5.2031 0,-2.3677 -0.56457,-4.0884 -1.69336,-5.1622 -1.10125,-1.0737 -2.79497,-1.6093 -5.08008,-1.6093 z m -181.86718,101.834 c -0.64018,-0.013 -1.22187,0.069 -1.7461,0.246 -1.04051,0.3251 -1.92562,0.899 -2.65429,1.7208 -0.72073,0.792 -1.31323,1.7599 -1.7793,2.9062 -0.43642,1.1543 -0.82255,2.3542 -1.15625,3.5996 l -2.09766,7.8281 -2.49023,-0.666 c -0.77095,-0.2066 -1.55483,-0.3687 -2.34961,-0.4863 -0.75719,-0.1393 -1.47959,-0.111 -2.16797,0.086 -0.68838,0.1969 -1.32032,0.5987 -1.89648,1.2071 -0.54651,0.6163 -0.99039,1.5628 -1.33203,2.8378 -0.32576,1.2158 -0.40538,2.2263 -0.24024,3.0333 0.19479,0.8149 0.53942,1.4813 1.03711,1.996 0.4977,0.5148 1.10299,0.9289 1.8125,1.2461 0.74711,0.2956 1.50444,0.5474 2.27539,0.7539 l 2.49219,0.668 -3.93359,14.6777 c -0.48466,1.8088 -0.91907,3.5502 -1.30469,5.2266 -0.34803,1.6547 -0.58081,3.2298 -0.69531,4.7246 -0.0849,1.5028 3.8e-4,2.9075 0.2539,4.2149 0.29112,1.2856 0.81427,2.4759 1.57031,3.5683 0.79365,1.0708 1.87292,2.0271 3.23633,2.8692 1.39307,0.8499 3.14277,1.557 5.24805,2.1211 1.33433,0.3575 2.64441,0.5661 3.93164,0.625 1.28723,0.059 2.46499,-0.072 3.53516,-0.3887 1.07016,-0.3171 1.9878,-0.8339 2.75195,-1.5508 0.79379,-0.7089 1.35016,-1.6557 1.66797,-2.8418 0.30986,-1.1564 0.44483,-2.1365 0.40625,-2.9414 -0.0386,-0.8049 -0.25364,-1.483 -0.64649,-2.0332 -0.36319,-0.5422 -0.91135,-0.9909 -1.64257,-1.3457 -0.69363,-0.3765 -1.57316,-0.7081 -2.64063,-0.9941 -0.97851,-0.2622 -1.68661,-0.6418 -2.125,-1.1407 -0.43045,-0.5285 -0.7044,-1.1112 -0.82031,-1.7461 -0.11591,-0.6349 -0.11549,-1.2868 0,-1.955 0.15309,-0.69 0.30789,-1.3308 0.46679,-1.9239 l 4.17188,-15.5664 3.64648,0.9766 c 0.77095,0.2066 1.55483,0.3687 2.34961,0.4863 0.80273,0.088 1.54795,0.033 2.23633,-0.164 0.71803,-0.189 1.34998,-0.5908 1.89649,-1.2071 0.57615,-0.6083 1.02776,-1.5206 1.35351,-2.7363 0.34164,-1.275 0.41549,-2.3198 0.2207,-3.1348 -0.16513,-0.807 -0.51171,-1.4714 -1.03906,-1.9941 -0.49769,-0.5147 -1.12385,-0.906 -1.8789,-1.1719 -0.74712,-0.2955 -1.5064,-0.5454 -2.27735,-0.7519 l -3.64844,-0.9786 2.09766,-7.8281 c 0.3337,-1.2454 0.58631,-2.4812 0.75586,-3.707 0.1992,-1.2179 0.18516,-2.3502 -0.043,-3.3965 -0.19053,-1.068 -0.65593,-2.0029 -1.39453,-2.8047 -0.73065,-0.8314 -1.83772,-1.4445 -3.32031,-1.8418 -0.75612,-0.2026 -1.45358,-0.3096 -2.09375,-0.3222 z m -334.6543,2.9375 c -2.33557,0.032 -5.05883,0.4632 -8.16992,1.2968 -0.92409,0.2476 -2.0201,0.5903 -3.28906,1.0293 -1.23816,0.4308 -2.5161,1.0222 -3.83399,1.7715 -1.31789,0.7493 -2.5663,1.6945 -3.74609,2.8359 -1.18805,1.1107 -2.15465,2.4921 -2.90039,4.1446 -0.74575,1.6524 -1.20151,3.5897 -1.36524,5.8125 -0.13292,2.2145 0.19247,4.7846 0.97657,7.7109 l 2.89843,10.8125 c 0.85013,3.1727 2.09131,5.7128 3.72461,7.6192 1.63331,1.9063 3.50998,3.3006 5.62891,4.1855 2.14973,0.8766 4.46221,1.3135 6.9375,1.3106 2.47529,0 4.9937,-0.3302 7.55859,-0.9844 1.94059,-0.52 3.97455,-1.2466 6.10156,-2.1797 2.15783,-0.9414 4.08412,-2.0683 5.7793,-3.3809 1.69519,-1.3126 2.99824,-2.8019 3.90625,-4.4648 0.89976,-1.6937 1.08141,-3.5408 0.54492,-5.543 -0.25586,-0.9549 -0.6313,-1.6793 -1.12695,-2.1738 -0.5039,-0.5253 -1.07937,-0.884 -1.72461,-1.0742 -0.64524,-0.1903 -1.35467,-0.2468 -2.12695,-0.1719 -0.74148,0.067 -1.49555,0.2019 -2.26563,0.4082 -1.60175,0.4292 -2.82446,0.9229 -3.66601,1.4785 -0.819,0.5166 -1.43175,1.0593 -1.83985,1.6309 -0.37729,0.5633 -0.6541,1.1336 -0.83007,1.709 -0.17598,0.5753 -0.40652,1.1313 -0.69141,1.6699 -0.25408,0.5303 -0.67831,1.0416 -1.27344,1.5312 -0.57258,0.4506 -1.47491,0.8398 -2.70703,1.17 -1.0781,0.2888 -2.04557,0.3171 -2.90039,0.084 -0.85482,-0.2331 -1.60442,-0.6258 -2.24805,-1.1797 -0.61282,-0.5621 -1.11816,-1.2193 -1.51758,-1.9707 -0.39941,-0.7513 -0.69839,-1.497 -0.89648,-2.2363 l -1.1875,-4.4355 18.38867,-4.9278 c 1.63256,-0.4374 2.8375,-0.9915 3.61524,-1.6621 0.77773,-0.6706 1.28763,-1.3523 1.53125,-2.0449 0.26617,-0.7316 0.34414,-1.4284 0.23242,-2.0918 -0.11997,-0.6942 -0.24685,-1.2884 -0.37891,-1.7812 l -0.76758,-2.8633 c -0.29713,-1.1089 -0.6751,-2.2799 -1.13671,-3.5098 -0.46987,-1.2607 -1.08628,-2.4479 -1.84766,-3.5644 -0.76964,-1.1474 -1.74185,-2.1915 -2.91797,-3.1309 -1.17612,-0.9394 -2.6239,-1.6572 -4.3418,-2.1543 -1.71789,-0.4971 -3.76058,-0.7254 -6.12695,-0.6855 z m 759.98046,8.4023 c -1.6458,0 -3.0015,0.3068 -4.0664,0.9199 -1.0327,0.6132 -1.839,1.4195 -2.4199,2.4199 -0.5809,1.0004 -0.9851,2.1467 -1.211,3.4375 -0.2259,1.2909 -0.3378,2.6134 -0.3378,3.9688 v 11.8105 l 2.5175,15.6836 c 0,1.0327 0.048,2.0339 0.1446,3.002 0.129,0.9681 0.3881,1.8388 0.7754,2.6133 0.3872,0.7422 0.9345,1.3557 1.6445,1.8398 0.7422,0.4518 1.7268,0.6777 2.9531,0.6777 1.2263,0 2.1943,-0.2259 2.9043,-0.6777 0.7422,-0.4841 1.3081,-1.0976 1.6953,-1.8398 0.3873,-0.7745 0.6278,-1.6452 0.7246,-2.6133 0.1291,-0.9681 0.1934,-1.9693 0.1934,-3.002 l 2.4219,-15.4902 v -11.9082 c 0,-1.3554 -0.114,-2.6779 -0.3399,-3.9688 -0.1936,-1.2908 -0.5812,-2.4371 -1.1621,-3.4375 -0.5809,-1.0326 -1.3872,-1.8556 -2.4199,-2.4687 -1.0327,-0.6454 -2.3718,-0.9668 -4.0176,-0.9668 z m -762.17382,2.1543 c 0.26462,0.01 0.50929,0.037 0.73633,0.084 0.93897,0.1776 1.69746,0.6024 2.27344,1.2734 0.60677,0.6628 1.09394,1.5545 1.46093,2.6777 0.38954,1.0842 0.7781,2.3511 1.16602,3.7989 l -11.55078,3.0937 -0.86719,-3.2324 c -0.14031,-0.5236 -0.25458,-1.1374 -0.34375,-1.8398 -0.0892,-0.7025 -0.0273,-1.3958 0.18555,-2.0801 0.20456,-0.7151 0.60781,-1.3687 1.20898,-1.959 0.63198,-0.5985 1.57888,-1.0659 2.8418,-1.4043 1.13201,-0.3033 2.09482,-0.4408 2.88867,-0.4121 z m 762.17382,49.6406 c -2.5817,0 -4.5655,0.6282 -5.9531,1.8867 -1.3877,1.2586 -2.082,3.2775 -2.082,6.0528 0,2.743 0.6943,4.7745 2.082,6.0976 1.3876,1.2909 3.3714,1.9375 5.9531,1.9375 2.5172,0 4.4698,-0.6466 5.8574,-1.9375 1.3877,-1.3231 2.0821,-3.3546 2.0821,-6.0976 0,-2.7753 -0.6633,-4.7942 -1.9864,-6.0528 -1.2908,-1.2585 -3.2746,-1.8867 -5.9531,-1.8867 z"
         style="color:#000000;font-style:normal;font-variant:normal;font-weight:normal;font-stretch:normal;font-size:medium;line-height:normal;font-family:sans-serif;font-variant-ligatures:normal;font-variant-position:normal;font-variant-caps:normal;font-variant-numeric:normal;font-variant-alternates:normal;font-feature-settings:normal;text-indent:0;text-align:start;text-decoration:none;text-decoration-line:none;text-decoration-style:solid;text-decoration-color:#000000;letter-spacing:normal;word-spacing:normal;text-transform:none;writing-mode:lr-tb;direction:ltr;text-orientation:mixed;dominant-baseline:auto;baseline-shift:baseline;text-anchor:start;white-space:normal;shape-padding:0;clip-rule:nonzero;display:inline;overflow:visible;visibility:visible;opacity:1;isolation:auto;mix-blend-mode:normal;color-interpolation:sRGB;color-interpolation-filters:linearRGB;solid-color:#000000;solid-opacity:1;vector-effect:none;fill:#f8ad44;fill-opacity:1;fill-rule:nonzero;stroke:none;stroke-width:5.00000048;stroke-linecap:round;stroke-linejoin:round;stroke-miterlimit:4;stroke-dasharray:none;stroke-dashoffset:0;stroke-opacity:1;color-rendering:auto;image-rendering:auto;shape-rendering:auto;text-rendering:auto;enable-background:accumulate" />
      <path
         inkscape:connector-curvature="0"
         id="path907"
         transform="matrix(0.26458333,0,0,0.26458333,0,111.79165)"
         d="m 212.20508,995.21484 a 56.253118,52.717967 0 0 1 23.04297,42.47656 56.253118,52.717967 0 0 1 -40.07227,50.4434 51.811133,48.555134 0 0 0 48.14844,-48.4356 51.811133,48.555134 0 0 0 -31.11914,-44.48436 z m 733.55078,30.43556 c 6.26846,5.5252 8.12129,15.2141 3.27344,22.3418 l -37.43946,55.0508 c -2.92429,4.2989 -7.09936,7.183 -11.66601,8.3086 7.97397,3.3379 16.81624,0.2968 21.82226,-7.0625 l 35.6211,-52.3731 c 5.35101,-7.8673 2.13326,-19.0348 -6.28711,-23.4648 z m -521.16602,4.2832 58.97852,16.0781 c 9.17851,2.5067 15.37731,12.0826 12.14453,21.0313 l -23.79101,65.8515 c -2.52669,6.9942 -8.56145,12.6046 -15.29297,13.0469 l 2.46484,0.9883 c 8.83446,3.5327 17.79847,-3.1959 21.03125,-12.1445 l 23.78906,-65.8457 c 3.23282,-8.9487 -2.96407,-18.5305 -12.14258,-21.0372 l -63.94336,-17.4257 c -1.09319,-0.2979 -2.1737,-0.4711 -3.23828,-0.543 z m 310.94141,45.6543 c 5.29353,7.1822 8.17071,14.2588 6.60156,20.7324 l -31.96484,63.2891 3.64844,-0.051 c 3.75605,-0.055 7.0483,-2.5186 8.1582,-6.1074 l 30.50781,-58.586 c 1.10721,-3.5876 -0.21754,-7.4796 -3.28515,-9.6445 z m 339.59575,94.9512 a 63.516436,59.524832 0 0 1 26.0175,47.9629 63.516436,59.524832 0 0 1 -45.2461,56.957 58.500909,54.824502 0 0 0 54.3653,-54.6914 58.500909,54.824502 0 0 0 -35.1367,-50.2285 z m -943.98247,51.8574 c -1.30275,0 -2.55408,0.1224 -3.75781,0.3594 l 70.28516,0.3066 c 10.93944,0.053 20.67341,8.842 19.74609,19.7422 l -6.82617,80.2148 c -0.72487,8.5196 -5.75725,16.5467 -13.10157,19.041 l 3.03125,0.3614 c 10.86264,1.2944 18.81486,-8.8439 19.74219,-19.7442 l 6.82617,-80.207 c 0.92734,-10.9002 -8.80665,-19.6974 -19.74609,-19.75 z m 652.10352,43.7969 58.98047,16.0781 c 9.1785,2.5066 15.37535,12.0826 12.14257,21.0312 l -23.79101,65.8516 c -2.52669,6.9942 -8.56144,12.6046 -15.29297,13.0469 l 2.46484,0.9883 c 8.83446,3.5327 17.79847,-3.1959 21.03125,-12.1446 l 23.78907,-65.8457 c 3.23281,-8.9487 -2.96408,-18.5304 -12.14258,-21.0371 l -63.94336,-17.4258 c -1.09319,-0.2978 -2.1737,-0.471 -3.23828,-0.5429 z m -283.09766,15.1504 a 51.165386,47.949968 15 0 1 10.24609,42.7441 51.165386,47.949968 15 0 1 -47.08203,34.8848 47.12515,44.163633 15 0 0 53.70508,-31.2207 47.12515,44.163633 15 0 0 -16.86914,-46.4082 z m -175.88281,157.3359 c 4.53206,6.149 6.9938,12.2077 5.65039,17.75 l -27.36719,54.1855 3.12305,-0.043 c 3.21578,-0.047 6.03608,-2.1579 6.98633,-5.2305 l 26.11914,-50.1563 c 0.94794,-3.0715 -0.18612,-6.4062 -2.8125,-8.2597 z m 766.86722,16.8945 c 6.2684,5.5252 8.1213,15.2141 3.2734,22.3418 l -37.4394,55.0508 c -2.9243,4.2989 -7.0975,7.183 -11.6641,8.3086 7.974,3.3379 16.8162,0.2968 21.8223,-7.0625 l 35.6191,-52.3731 c 5.351,-7.8673 2.1333,-19.0347 -6.2871,-23.4648 z m -425.48636,6.2617 c 4.14346,6.2351 3.50056,15.0496 -2.34766,20.0938 l -45.16797,38.959 c -3.52754,3.0422 -7.8084,4.5712 -12.02148,4.4863 6.12676,4.7377 14.48443,4.1577 20.52344,-1.0508 l 42.9707,-37.0644 c 6.45513,-5.5677 6.2598,-15.9793 0,-21.7657 z"
         style="opacity:1;fill:#f08c04;fill-opacity:1;fill-rule:nonzero;stroke:none;stroke-width:1;stroke-linecap:round;stroke-linejoin:round;stroke-miterlimit:4;stroke-dasharray:none;stroke-dashoffset:10;stroke-opacity:1" />
    </g>
  </g>
</svg>
